# Blender v2.83.9 OBJ File: 'USBGame.blend'
# www.blender.org
mtllib Flashdrive.mtl
o Cube
v 0.530011 0.193955 -1.658806
v 0.530011 -0.193955 -1.658806
v 0.799502 0.312121 1.658806
v 0.799502 -0.312121 1.658806
v -0.530011 0.193955 -1.658806
v -0.530011 -0.193955 -1.658806
v -0.799502 0.312121 1.658806
v -0.799502 -0.312121 1.658806
v 0.799502 -0.312121 -1.658806
v -0.799502 -0.312121 -1.658806
v 0.799502 0.312121 -1.658806
v -0.799502 0.312121 -1.658806
v 0.491926 -0.144997 -2.747438
v -0.491926 -0.144997 -2.747438
v 0.491926 0.144997 -2.747438
v -0.491926 0.144997 -2.747438
v 0.530011 -0.193955 -2.747438
v -0.530011 -0.193955 -2.747438
v 0.530011 0.193955 -2.747438
v -0.530011 0.193955 -2.747438
v 0.799502 0.000000 -1.658806
v -0.799502 0.000000 1.658806
v 0.799502 0.000000 1.658806
v -0.799502 0.000000 -1.658806
v 0.530011 0.000000 -1.658806
v -0.530011 0.000000 -1.658806
v 0.530011 0.000000 -2.747438
v -0.530011 0.000000 -2.747438
v 0.491926 0.000000 -2.747438
v -0.491926 0.000000 -2.747438
v 0.000000 0.193955 -1.658806
v 0.000000 0.193955 -2.747438
v 0.530011 0.193955 -2.203122
v -0.530011 0.193955 -2.203122
v 0.000000 0.193955 -2.203122
v 0.265005 0.193955 -1.658806
v 0.265005 0.193955 -2.747438
v 0.530011 0.193955 -2.475280
v -0.530011 0.193955 -1.930964
v -0.265005 0.193955 -1.658806
v -0.265005 0.193955 -2.747438
v 0.530011 0.193955 -1.930964
v -0.530011 0.193955 -2.475280
v 0.000000 0.193955 -2.475280
v 0.000000 0.193955 -1.930964
v -0.265005 0.193955 -2.203122
v 0.265005 0.193955 -2.203122
v 0.265005 0.193955 -1.930964
v -0.265005 0.193955 -1.930964
v -0.265005 0.193955 -2.475280
v 0.265005 0.193955 -2.475280
v 0.397508 0.193955 -1.658806
v 0.397508 0.193955 -2.747438
v 0.530011 0.193955 -2.611359
v -0.530011 0.193955 -1.794885
v -0.132503 0.193955 -1.658806
v -0.132503 0.193955 -2.747438
v 0.530011 0.193955 -2.067043
v -0.530011 0.193955 -2.339201
v 0.000000 0.193955 -2.611359
v 0.000000 0.193955 -2.067043
v -0.397508 0.193955 -2.203122
v 0.132503 0.193955 -2.203122
v 0.132503 0.193955 -1.658806
v 0.132503 0.193955 -2.747438
v 0.530011 0.193955 -2.339201
v -0.530011 0.193955 -2.067043
v -0.397508 0.193955 -1.658806
v -0.397508 0.193955 -2.747438
v 0.530011 0.193955 -1.794885
v -0.530011 0.193955 -2.611359
v 0.000000 0.193955 -2.339201
v 0.000000 0.193955 -1.794885
v -0.132503 0.193955 -2.203122
v 0.397508 0.193955 -2.203122
v 0.265005 0.193955 -2.067043
v 0.265005 0.193955 -1.794885
v 0.132503 0.193955 -1.930964
v 0.397508 0.193955 -1.930964
v -0.265005 0.193955 -2.067043
v -0.265005 0.193955 -1.794885
v -0.397508 0.193955 -1.930964
v -0.132503 0.193955 -1.930964
v -0.265005 0.193955 -2.611359
v -0.265005 0.193955 -2.339201
v -0.397508 0.193955 -2.475280
v -0.132503 0.193955 -2.475280
v 0.265005 0.193955 -2.611359
v 0.265005 0.193955 -2.339201
v 0.132503 0.193955 -2.475280
v 0.397508 0.193955 -2.475280
v 0.397508 0.193955 -2.339201
v 0.132503 0.193955 -2.339201
v 0.132503 0.193955 -2.611359
v -0.132503 0.193955 -2.339201
v -0.397508 0.193955 -2.339201
v -0.397508 0.193955 -2.611359
v -0.132503 0.193955 -1.794885
v -0.397508 0.193955 -1.794885
v -0.397508 0.193955 -2.067043
v 0.397508 0.193955 -1.794885
v 0.132503 0.193955 -1.794885
v 0.132503 0.193955 -2.067043
v 0.397508 0.193955 -2.067043
v -0.132503 0.193955 -2.067043
v -0.132503 0.193955 -2.611359
v 0.397508 0.193955 -2.611359
v -0.132503 0.155179 -2.203122
v -0.265005 0.155179 -2.203122
v 0.397508 0.155179 -2.203122
v 0.265005 0.155179 -2.203122
v -0.397508 0.155179 -2.203122
v 0.132503 0.155179 -2.203122
v -0.265005 0.155179 -2.339201
v 0.265005 0.155179 -2.339201
v 0.397508 0.155179 -2.339201
v 0.132503 0.155179 -2.339201
v -0.132503 0.155179 -2.339201
v -0.397508 0.155179 -2.339201
vt 0.625000 0.500000
vt 0.875000 0.500000
vt 0.875000 0.750000
vt 0.625000 0.750000
vt 0.500000 0.750000
vt 0.625000 1.000000
vt 0.500000 1.000000
vt 0.500000 0.000000
vt 0.625000 0.000000
vt 0.625000 0.250000
vt 0.500000 0.250000
vt 0.125000 0.500000
vt 0.375000 0.500000
vt 0.375000 0.750000
vt 0.125000 0.750000
vt 0.500000 0.500000
vt 0.422324 0.268475
vt 0.422324 0.481525
vt 0.375000 0.250000
vt 0.500000 0.481525
vt 0.577676 0.481525
vt 0.500000 0.268475
vt 0.577676 0.454894
vt 0.577676 0.428263
vt 0.577676 0.401631
vt 0.577676 0.375000
vt 0.577676 0.348369
vt 0.577676 0.321737
vt 0.577676 0.295106
vt 0.577676 0.268475
vt 0.441931 0.276129
vt 0.500000 0.276129
vt 0.500000 0.473871
vt 0.441931 0.473871
vt 0.375000 0.000000
vt 0.375000 1.000000
vt 0.500000 0.268475
vt 0.500000 0.481525
vt 0.577676 0.428263
vt 0.577676 0.454894
vt 0.577676 0.454894
vt 0.577676 0.428263
vt 0.577676 0.401631
vt 0.577676 0.401631
vt 0.577676 0.321737
vt 0.577676 0.348369
vt 0.577676 0.348369
vt 0.577676 0.321737
vt 0.577676 0.295106
vt 0.577676 0.295106
vt 0.577676 0.454894
vt 0.577676 0.481525
vt 0.577676 0.481525
vt 0.577676 0.454894
vt 0.000000 0.000000
vt 0.000000 0.000000
vt 0.000000 0.000000
vt 0.000000 0.000000
vt 0.000000 0.000000
vt 0.000000 0.000000
vt 0.000000 0.000000
vt 0.000000 0.000000
vt 0.000000 0.000000
vt 0.000000 0.000000
vt 0.000000 0.000000
vt 0.000000 0.000000
vt 0.000000 0.000000
vt 0.422324 0.481525
vt 0.577676 0.268475
vt 0.577676 0.268475
vt 0.577676 0.268475
vt 0.577676 0.268475
vt 0.577676 0.268475
vt 0.577676 0.268475
vt 0.577676 0.268475
vt 0.577676 0.268475
vt 0.422324 0.268475
vt 0.558069 0.473871
vt 0.558069 0.276129
vt 0.577676 0.295106
vt 0.577676 0.321737
vt 0.577676 0.348369
vt 0.577676 0.375000
vt 0.577676 0.401631
vt 0.577676 0.428263
vt 0.577676 0.481525
vt 0.577676 0.481525
vt 0.577676 0.481525
vt 0.577676 0.481525
vt 0.577676 0.481525
vt 0.577676 0.481525
vt 0.577676 0.348369
vt 0.577676 0.375000
vt 0.577676 0.348369
vt 0.577676 0.375000
vt 0.577676 0.375000
vt 0.577676 0.348369
vt 0.577676 0.454894
vt 0.577676 0.454894
vt 0.577676 0.401631
vt 0.577676 0.428263
vt 0.577676 0.428263
vt 0.577676 0.401631
vt 0.577676 0.401631
vt 0.577676 0.428263
vt 0.577676 0.428263
vt 0.577676 0.401631
vt 0.577676 0.454894
vt 0.577676 0.454894
vt 0.577676 0.295106
vt 0.577676 0.321737
vt 0.577676 0.321737
vt 0.577676 0.295106
vt 0.577676 0.295106
vt 0.577676 0.321737
vt 0.577676 0.321737
vt 0.577676 0.295106
vt 0.577676 0.348369
vt 0.577676 0.375000
vt 0.577676 0.375000
vt 0.577676 0.348369
vt 0.577676 0.295106
vt 0.577676 0.321737
vt 0.577676 0.295106
vt 0.577676 0.321737
vt 0.577676 0.321737
vt 0.577676 0.295106
vt 0.577676 0.348369
vt 0.577676 0.375000
vt 0.577676 0.375000
vt 0.577676 0.348369
vt 0.577676 0.401631
vt 0.577676 0.428263
vt 0.577676 0.401631
vt 0.577676 0.428263
vt 0.577676 0.428263
vt 0.577676 0.401631
vt 0.577676 0.454894
vt 0.577676 0.454894
vn 0.0000 1.0000 0.0000
vn 0.0000 0.0000 1.0000
vn -1.0000 0.0000 0.0000
vn 0.0000 -1.0000 0.0000
vn 1.0000 0.0000 0.0000
vn 0.0000 0.0000 -1.0000
usemtl Black
s off
f 11/1/1 12/2/1 7/3/1 3/4/1
f 23/5/2 3/4/2 7/6/2 22/7/2
f 22/8/3 7/9/3 12/10/3 24/11/3
f 10/12/4 9/13/4 4/14/4 8/15/4
f 21/16/5 11/1/5 3/4/5 23/5/5
f 6/17/6 2/18/6 9/13/6 10/19/6
f 25/20/6 1/21/6 11/1/6 21/16/6
f 26/22/6 6/17/6 10/19/6 24/11/6
f 1/21/6 52/23/6 36/24/6 64/25/6 31/26/6 56/27/6 40/28/6 68/29/6 5/30/6 12/10/6 11/1/6
f 14/31/6 30/32/6 29/33/6 13/34/6
f 5/30/6 26/22/6 24/11/6 12/10/6
f 2/18/6 25/20/6 21/16/6 9/13/6
f 9/13/5 21/16/5 23/5/5 4/14/5
f 8/35/3 22/8/3 24/11/3 10/19/3
f 4/14/2 23/5/2 22/7/2 8/36/2
f 28/37/4 27/38/4 25/20/4 26/22/4
f 111/39/1 110/40/1 116/41/1 115/42/1
f 113/43/1 111/39/1 115/42/1 117/44/1
f 109/45/1 108/46/1 118/47/1 114/48/1
f 112/49/1 109/45/1 114/48/1 119/50/1
usemtl Gray
f 107/51/1 54/52/1 19/53/1 53/54/1
f 25/55/6 2/56/6 6/57/6 26/58/6 5/59/6 68/60/6 40/61/6 56/62/6 31/63/6 64/64/6 36/65/6 52/66/6 1/67/6
f 25/20/5 2/18/5 17/68/5 27/38/5
f 26/22/3 5/30/3 55/69/3 39/70/3 67/71/3 34/72/3 59/73/3 43/74/3 71/75/3 20/76/3 28/37/3
f 2/18/4 6/17/4 18/77/4 17/68/4
f 14/31/6 13/34/6 17/68/6 18/77/6
f 29/33/6 15/78/6 19/53/6 27/38/6
f 30/32/6 14/31/6 18/77/6 28/37/6
f 15/78/6 16/79/6 20/76/6 69/80/6 41/81/6 57/82/6 32/83/6 65/84/6 37/85/6 53/54/6 19/53/6
f 16/79/6 30/32/6 28/37/6 20/76/6
f 13/34/6 29/33/6 27/38/6 17/68/6
f 6/17/3 26/22/3 28/37/3 18/77/3
f 1/21/5 25/20/5 27/38/5 19/53/5 54/52/5 38/86/5 66/87/5 33/88/5 58/89/5 42/90/5 70/91/5
f 106/92/1 60/93/1 32/83/1 57/82/1
f 105/94/1 61/95/1 35/96/1 74/97/1
f 104/98/1 58/89/1 33/88/1 75/99/1
f 103/100/1 76/101/1 47/102/1 63/103/1
f 102/104/1 77/105/1 48/106/1 78/107/1
f 101/108/1 70/91/1 42/90/1 79/109/1
f 100/110/1 80/111/1 46/112/1 62/113/1
f 99/114/1 81/115/1 49/116/1 82/117/1
f 98/118/1 73/119/1 45/120/1 83/121/1
f 97/122/1 84/123/1 41/81/1 69/80/1
f 96/124/1 85/125/1 50/126/1 86/127/1
f 95/128/1 72/129/1 44/130/1 87/131/1
f 94/132/1 88/133/1 37/85/1 65/84/1
f 93/134/1 89/135/1 51/136/1 90/137/1
f 92/138/1 66/87/1 38/86/1 91/139/1
f 89/135/1 92/138/1 91/139/1 51/136/1
f 85/125/2 96/124/2 119/50/2 114/48/2
f 75/99/1 33/88/1 66/87/1 92/138/1
f 72/129/1 93/134/1 90/137/1 44/130/1
f 35/96/1 63/103/1 93/134/1 72/129/1
f 93/134/5 63/103/5 113/43/5 117/44/5
f 60/93/1 94/132/1 65/84/1 32/83/1
f 44/130/1 90/137/1 94/132/1 60/93/1
f 90/137/1 51/136/1 88/133/1 94/132/1
f 85/125/1 95/128/1 87/131/1 50/126/1
f 63/103/6 47/102/6 111/39/6 113/43/6
f 74/97/1 35/96/1 72/129/1 95/128/1
f 59/73/1 96/124/1 86/127/1 43/74/1
f 34/72/1 62/113/1 96/124/1 59/73/1
f 75/99/3 92/138/3 116/41/3 110/40/3
f 71/75/1 97/122/1 69/80/1 20/76/1
f 43/74/1 86/127/1 97/122/1 71/75/1
f 86/127/1 50/126/1 84/123/1 97/122/1
f 81/115/1 98/118/1 83/121/1 49/116/1
f 40/28/1 56/27/1 98/118/1 81/115/1
f 56/27/1 31/26/1 73/119/1 98/118/1
f 55/69/1 99/114/1 82/117/1 39/70/1
f 5/30/1 68/29/1 99/114/1 55/69/1
f 68/29/1 40/28/1 81/115/1 99/114/1
f 67/71/1 100/110/1 62/113/1 34/72/1
f 39/70/1 82/117/1 100/110/1 67/71/1
f 82/117/1 49/116/1 80/111/1 100/110/1
f 77/105/1 101/108/1 79/109/1 48/106/1
f 36/24/1 52/23/1 101/108/1 77/105/1
f 52/23/1 1/21/1 70/91/1 101/108/1
f 73/119/1 102/104/1 78/107/1 45/120/1
f 31/26/1 64/25/1 102/104/1 73/119/1
f 64/25/1 36/24/1 77/105/1 102/104/1
f 61/95/1 103/100/1 63/103/1 35/96/1
f 45/120/1 78/107/1 103/100/1 61/95/1
f 78/107/1 48/106/1 76/101/1 103/100/1
f 76/101/1 104/98/1 75/99/1 47/102/1
f 48/106/1 79/109/1 104/98/1 76/101/1
f 79/109/1 42/90/1 58/89/1 104/98/1
f 80/111/1 105/94/1 74/97/1 46/112/1
f 49/116/1 83/121/1 105/94/1 80/111/1
f 83/121/1 45/120/1 61/95/1 105/94/1
f 84/123/1 106/92/1 57/82/1 41/81/1
f 50/126/1 87/131/1 106/92/1 84/123/1
f 87/131/1 44/130/1 60/93/1 106/92/1
f 88/133/1 107/51/1 53/54/1 37/85/1
f 51/136/1 91/139/1 107/51/1 88/133/1
f 91/139/1 38/86/1 54/52/1 107/51/1
f 92/138/2 89/135/2 115/42/2 116/41/2
f 74/97/3 95/128/3 118/47/3 108/46/3
f 46/112/6 74/97/6 108/46/6 109/45/6
f 96/124/5 62/113/5 112/49/5 119/50/5
f 89/135/2 93/134/2 117/44/2 115/42/2
f 95/128/2 85/125/2 114/48/2 118/47/2
f 62/113/6 46/112/6 109/45/6 112/49/6
f 47/102/6 75/99/6 110/40/6 111/39/6
