# Blender v2.83.9 OBJ File: 'USBGame.blend'
# www.blender.org
mtllib GlassPaneBroken.mtl
o GlassPane_cell_GlassPane_cell.008
v -0.020296 -1.000000 1.000000
v 0.020296 -1.000000 1.000000
v 0.020296 -1.000000 0.565428
v 0.020296 -0.188078 0.687184
v 0.020296 -0.188993 0.521610
v 0.020296 -0.186421 1.000000
v -0.020296 -0.181380 0.850063
v -0.020296 -0.183037 0.550137
v -0.020296 -0.180586 1.000000
v -0.020296 -1.000000 0.594249
v 0.020296 -0.188078 0.687184
v 0.020296 -0.188993 0.521610
v 0.020296 -0.186421 1.000000
v 0.020296 -1.000000 0.565428
v -0.020296 -0.181380 0.850063
v -0.020296 -0.183037 0.550137
v -0.020296 -0.180586 1.000000
v -0.020296 -1.000000 0.594249
vt 0.375000 0.000000
vt 0.477427 0.000000
vt 0.477328 0.018742
vt 0.477120 0.056233
vt 0.375000 0.050719
vt 0.375000 0.750000
vt 0.476697 0.750000
vt 0.477427 1.000000
vt 0.375000 1.000000
vt 0.375000 0.695679
vt 0.476376 0.690201
vt 0.476490 0.710898
vt 0.357273 0.357273
vt 1.000000 0.355117
vt 1.000000 0.643994
vt 0.645185 0.645185
vt 0.644883 0.000000
vt 0.910772 0.265451
vt 0.910735 0.553818
vt 0.356006 0.000000
vt 0.125000 0.699281
vt 0.125000 0.750000
vt 1.000000 0.645185
vt 0.415545 0.058258
vt 0.704879 0.058252
vt 1.000000 0.357273
vn -1.0000 -0.0000 0.0000
vn 0.0000 0.0000 1.0000
vn 1.0000 0.0000 -0.0000
vn 0.1414 0.9899 -0.0055
vn 0.1423 0.9898 -0.0052
vn 0.0000 -1.0000 0.0000
vn -0.5786 -0.0440 -0.8145
usemtl None
s off
f 1/1/1 17/2/1 15/3/1 16/4/1 18/5/1
f 2/6/2 13/7/2 17/8/2 1/9/2
f 14/10/3 12/11/3 11/12/3 13/7/3 2/6/3
f 8/13/4 7/14/4 4/15/4 5/16/4
f 7/17/5 9/18/5 6/19/5 4/20/5
f 18/21/6 14/10/6 2/6/6 1/22/6
f 5/23/7 3/24/7 10/25/7 8/26/7
o GlassPane_cell.001_GlassPane_cell.009
v 0.020296 1.000000 -0.113862
v 0.020296 0.884620 -0.055283
v 0.020296 0.623917 0.077746
v 0.020296 0.884834 0.473430
v 0.020296 1.000000 0.647653
v -0.020296 1.000000 -0.127195
v -0.020296 0.750867 -0.000710
v -0.020296 0.607345 0.072525
v -0.020296 0.750985 0.290356
v -0.020296 1.000000 0.667067
v 0.020296 1.000000 -0.113862
v 0.020296 0.884620 -0.055283
v 0.020296 0.623917 0.077746
v 0.020296 0.884834 0.473430
v 0.020296 1.000000 0.647653
v -0.020296 1.000000 -0.127195
v -0.020296 0.750867 -0.000710
v -0.020296 0.607345 0.072525
v -0.020296 0.750985 0.290356
v -0.020296 1.000000 0.667067
vt 0.625000 0.705957
vt 0.610604 0.684179
vt 0.577990 0.634718
vt 0.610578 0.618089
vt 0.625000 0.610767
vt 0.625000 0.140899
vt 0.593858 0.125089
vt 0.575918 0.115934
vt 0.593873 0.088705
vt 0.625000 0.041617
vt 0.643724 0.000000
vt 0.892518 0.248656
vt 0.892331 0.537652
vt 0.354381 0.000000
vt 1.000000 0.642948
vt 0.355391 0.000000
vt 0.645131 0.000000
vt 1.000000 0.353954
vt 0.875000 0.609101
vt 0.875000 0.708383
vt 0.355391 0.355391
vt 1.000000 0.356276
vt 1.000000 0.645619
vt 0.645131 0.645131
vt 0.646046 0.000000
vt 0.782327 0.674264
vt 0.420167 0.312268
vt 0.357052 0.000000
vn 1.0000 0.0000 -0.0000
vn -1.0000 0.0000 0.0000
vn 0.2550 -0.8066 0.5332
vn 0.2875 -0.4353 -0.8531
vn 0.0000 1.0000 0.0000
vn 0.2607 -0.8060 0.5315
vn 0.2811 -0.4344 -0.8557
usemtl None
s off
f 33/27/8 32/28/8 31/29/8 30/30/8 29/31/8
f 34/32/9 35/33/9 36/34/9 37/35/9 38/36/9
f 22/37/10 23/38/10 28/39/10 27/40/10
f 20/41/11 21/42/11 26/43/11 25/44/11
f 29/31/12 34/45/12 38/46/12 33/27/12
f 21/47/13 22/48/13 27/49/13 26/50/13
f 25/51/14 24/52/14 19/53/14 20/54/14
o GlassPane_cell.002_GlassPane_cell.001
v -0.020296 0.176579 -1.000000
v -0.020296 -0.670914 -1.000000
v 0.020296 0.177354 -1.000000
v 0.020296 -0.682768 -1.000000
v 0.020296 0.116561 -0.687755
v 0.020296 -0.018204 0.002290
v 0.020296 -0.526996 -0.151359
v 0.020296 -0.204107 -0.048862
v 0.020296 -0.028978 0.006510
v 0.020296 -0.019586 0.009221
v -0.020296 0.058737 -0.394750
v -0.020296 -0.518036 -0.167161
v -0.020296 -0.339495 -0.110485
v -0.020296 -0.021903 -0.010069
v -0.020296 -0.016699 -0.008568
v -0.020296 -0.670914 -1.000000
v 0.020296 -0.682768 -1.000000
v 0.020296 0.177354 -1.000000
v -0.020296 0.176579 -1.000000
v 0.020296 0.116561 -0.687755
v 0.020296 -0.018204 0.002290
v -0.020296 0.058737 -0.394750
v -0.020296 -0.016699 -0.008568
v 0.020296 -0.526996 -0.151359
v 0.020296 -0.204107 -0.048862
v 0.020296 -0.028978 0.006510
v 0.020296 -0.019586 0.009221
v -0.020296 -0.518036 -0.167161
v -0.020296 -0.339495 -0.110485
v -0.020296 -0.021903 -0.010069
vt 0.357147 0.357147
vt 0.358623 0.000000
vt 0.647238 0.000000
vt 0.644575 0.644575
vt 1.000000 0.642104
vt 0.356843 0.000000
vt 0.645346 0.000000
vt 1.000000 0.354073
vt 0.414654 0.500000
vt 0.416136 0.250000
vt 0.522072 0.250000
vt 0.522169 0.500000
vt 0.356843 0.356843
vt 0.356686 0.000000
vt 0.645063 0.000000
vt 0.645346 0.645346
vt 0.514570 0.539030
vt 0.497725 0.625286
vt 0.497552 0.626153
vt 0.496378 0.625814
vt 0.474487 0.618892
vt 0.434125 0.606080
vt 1.000000 0.644575
vt 0.692947 0.643698
vt 0.404813 0.355448
vt 1.000000 0.357147
vt 0.152928 0.152928
vt 1.000000 0.352762
vt 0.530652 0.530652
vt 0.435246 0.145895
vt 0.457563 0.138811
vt 0.497262 0.126259
vt 0.498008 0.126551
vt 0.507342 0.174344
vt 0.354073 0.354073
vt 1.000000 0.152928
vt 1.000000 0.530652
vt 0.642104 0.642104
vt 0.354937 0.000000
vt 0.643314 0.000000
vt 0.945707 0.301669
vt 0.945767 0.589275
vn -0.0146 0.9814 0.1917
vn -0.4043 -0.2757 0.8721
vn 0.0000 0.0000 -1.0000
vn -0.4011 -0.2772 0.8731
vn 1.0000 0.0000 0.0000
vn -0.0188 0.9814 0.1911
vn -0.0160 0.9805 0.1956
vn -1.0000 0.0000 -0.0000
vn -0.4033 -0.2537 0.8792
vn -0.2761 -0.9453 0.1735
usemtl None
s off
f 60/55/15 61/56/15 59/57/15 43/58/15
f 68/59/16 67/60/16 63/61/16 64/62/16
f 55/63/17 54/64/17 57/65/17 56/66/17
f 67/67/18 50/68/18 45/69/18 63/70/18
f 56/66/19 58/71/19 44/72/19 65/73/19 47/74/19 46/75/19 62/76/19 55/63/19
f 43/77/20 41/78/20 39/79/20 60/80/20
f 48/81/21 59/82/21 61/83/21
f 54/64/22 66/84/22 51/85/22 52/86/22 53/87/22 49/88/22 57/65/22
f 64/89/23 48/90/23 61/91/23 68/92/23
f 45/93/24 50/94/24 40/95/24 42/96/24
o GlassPane_cell.003_GlassPane_cell.002
v -0.020296 0.178474 -1.000000
v -0.020296 0.940052 -1.000000
v 0.020296 0.179196 -1.000000
v 0.020296 0.999650 -1.000000
v 0.020296 0.054234 -0.361033
v 0.020296 -0.016524 0.002002
v 0.020296 -0.018207 0.010851
v 0.020296 1.000000 -0.115558
v 0.020296 0.622000 0.076324
v 0.020296 0.422444 0.057385
v 0.020296 -0.013845 0.015882
v -0.020296 0.113573 -0.668142
v -0.020296 1.000000 -0.638215
v -0.020296 1.000000 -0.128958
v -0.020296 0.605755 0.071163
v -0.020296 0.243417 0.036774
v -0.020296 -0.014320 -0.011965
v -0.020296 0.002926 0.013897
v 0.020296 0.179196 -1.000000
v -0.020296 0.178474 -1.000000
v 0.020296 0.999650 -1.000000
v -0.020296 0.940052 -1.000000
v 0.020296 0.054234 -0.361033
v 0.020296 -0.016524 0.002002
v 0.020296 -0.013845 0.015882
v 0.020296 -0.018207 0.010851
v -0.020296 0.002926 0.013897
v -0.020296 -0.014320 -0.011965
v 0.020296 0.622000 0.076324
v 0.020296 1.000000 -0.115558
v 0.020296 0.422444 0.057385
v -0.020296 0.113573 -0.668142
v -0.020296 1.000000 -0.638215
v -0.020296 0.605755 0.071163
v -0.020296 1.000000 -0.128958
v -0.020296 0.243417 0.036774
vt 0.355614 0.355614
vt 0.356184 0.000000
vt 0.643797 0.000000
vt 0.642765 0.642765
vt 0.625000 0.610555
vt 0.577753 0.634531
vt 0.552804 0.632175
vt 0.498268 0.626987
vt 0.497719 0.626362
vt 0.497929 0.625256
vt 0.506757 0.579886
vt 0.522399 0.500000
vt 0.625000 0.500264
vt 0.875000 0.545223
vt 0.875000 0.608880
vt 0.355588 0.355588
vt 0.482807 0.000000
vt 0.875888 0.000000
vt 0.645093 0.645093
vt 1.000000 0.642111
vt 0.355588 0.000000
vt 0.645093 0.000000
vt 1.000000 0.353639
vt 0.522309 0.250000
vt 0.514197 0.208518
vt 0.498094 0.125884
vt 0.500366 0.123263
vt 0.530427 0.120403
vt 0.575719 0.116105
vt 0.625000 0.141120
vt 0.625000 0.204777
vt 0.617507 0.250000
vt 1.000000 0.642765
vt 0.689260 0.642262
vt 0.401692 0.354646
vt 1.000000 0.355614
vt 0.123615 0.123615
vt 0.124112 0.000000
vt 0.517193 0.000000
vt 0.515123 0.515123
vt 1.000000 0.643816
vt 0.123615 0.000000
vt 1.000000 0.356203
vt 0.624956 0.500000
vt 0.542754 0.160314
vt 0.944949 0.251081
vt 0.944936 0.563501
vt 0.891989 0.684915
vt 0.357889 0.000000
vt 0.646361 0.000000
vt 0.892181 0.314484
vn 0.0125 -0.9815 -0.1913
vn 1.0000 0.0000 -0.0000
vn 0.0032 1.0000 -0.0003
vn -0.0875 -0.0943 0.9917
vn -0.0884 -0.0941 0.9916
vn -1.0000 -0.0000 -0.0000
vn 0.0175 -0.9813 -0.1919
vn -0.3582 -0.7651 0.5351
vn 0.0110 -0.9823 -0.1869
vn 0.0000 0.0000 -1.0000
vn -0.8229 0.5605 -0.0929
vn -0.2824 0.4342 0.8554
usemtl None
s off
f 73/97/25 92/98/25 85/99/25 80/100/25
f 98/101/26 97/102/26 99/103/26 93/104/26 94/105/26 74/106/26 91/107/26 71/108/26 89/109/26
f 89/109/27 101/110/27 103/111/27 98/101/27
f 104/112/28 86/113/28 79/114/28 78/115/28
f 83/116/29 104/117/29 78/118/29 77/119/29
f 69/120/30 100/121/30 96/122/30 95/123/30 84/124/30 102/125/30 103/126/30 101/127/30 90/128/30
f 80/129/31 88/130/31 87/131/31 73/132/31
f 75/133/32 79/134/32 86/135/32 85/136/32
f 92/137/33 75/138/33 85/139/33
f 71/108/34 69/120/34 90/128/34 89/140/34
f 81/141/35 72/142/35 70/143/35
f 82/144/36 83/145/36 77/146/36 76/147/36
o GlassPane_cell.004_GlassPane_cell.003
v 0.020296 -0.019981 0.012027
v 0.020296 -0.528133 -0.149529
v 0.020296 -0.352911 -0.093938
v 0.020296 -1.000000 0.562573
v 0.020296 -0.738924 0.548997
v 0.020296 -0.719470 -0.138852
v 0.020296 -1.000000 -0.123076
v 0.020296 -0.015672 0.017059
v 0.020296 -0.087243 0.225402
v 0.020296 -0.188854 0.519950
v -0.020296 -0.016809 -0.005878
v -0.020296 0.000923 0.014827
v -0.020296 -0.519267 -0.165475
v -0.020296 -0.200671 -0.064398
v -0.020296 -0.126634 0.386092
v -0.020296 -0.182647 0.548460
v -0.020296 -1.000000 0.591207
v -0.020296 -0.485869 0.564472
v -0.020296 -0.867164 -0.146063
v -0.020296 -1.000000 -0.138592
v 0.020296 -0.528133 -0.149529
v 0.020296 -0.352911 -0.093938
v 0.020296 -0.019981 0.012027
v 0.020296 -1.000000 0.562573
v 0.020296 -0.738924 0.548997
v 0.020296 -0.188854 0.519950
v 0.020296 -0.719470 -0.138852
v 0.020296 -1.000000 -0.123076
v 0.020296 -0.015672 0.017059
v 0.020296 -0.087243 0.225402
v -0.020296 -0.016809 -0.005878
v -0.020296 0.000923 0.014827
v -0.020296 -0.519267 -0.165475
v -0.020296 -0.200671 -0.064398
v -0.020296 -0.126634 0.386092
v -0.020296 -0.182647 0.548460
v -0.020296 -1.000000 0.591207
v -0.020296 -0.485869 0.564472
v -0.020296 -0.867164 -0.146063
v -0.020296 -1.000000 -0.138592
vt 0.375000 0.609615
vt 0.410066 0.607643
vt 0.433983 0.606309
vt 0.455886 0.613258
vt 0.497502 0.626503
vt 0.498041 0.627132
vt 0.489095 0.653175
vt 0.476393 0.689994
vt 0.407634 0.693625
vt 0.375000 0.695322
vt 0.125677 0.125677
vt 1.000000 0.353674
vt 1.000000 0.643064
vt 0.517151 0.517151
vt 1.000000 0.642137
vt 0.354806 0.000000
vt 0.645154 0.000000
vt 1.000000 0.353165
vt 0.644893 0.000000
vt 0.644797 0.587518
vt 0.355757 0.298342
vt 0.355806 0.000000
vt 0.353165 0.353165
vt 0.902293 0.353614
vt 0.902160 0.642350
vt 0.642137 0.642137
vt 1.000000 0.644194
vt 0.355790 0.000000
vt 0.644884 0.000000
vt 1.000000 0.355107
vt 0.125532 0.125532
vt 0.125677 0.000000
vt 0.517151 0.000000
vt 0.516557 0.516557
vt 0.375000 0.051099
vt 0.439266 0.054441
vt 0.477169 0.056443
vt 0.484171 0.076738
vt 0.500115 0.123147
vt 0.497899 0.125735
vt 0.474916 0.133050
vt 0.435092 0.145684
vt 0.391605 0.143258
vt 0.375000 0.142324
vt 0.353674 0.353674
vt 0.354846 0.000000
vt 0.645194 0.000000
vt 0.643064 0.643064
vt 0.125000 0.607676
vt 0.125000 0.698901
vt 0.355790 0.355790
vt 1.000000 0.353977
vt 1.000000 0.643885
vt 0.644884 0.644884
vt 0.353977 0.353977
vt 0.125532 0.000000
vt 0.516557 0.000000
vt 0.643885 0.643885
vn 1.0000 0.0000 0.0000
vn 0.4058 0.2772 -0.8709
vn 0.3553 -0.0521 -0.9333
vn 0.5759 0.0425 0.8164
vn 0.3566 -0.0525 -0.9328
vn 0.5786 0.0430 0.8145
vn 0.3272 0.7177 -0.6147
vn -1.0000 0.0000 0.0000
vn 0.4031 0.2767 -0.8723
vn 0.0000 -1.0000 0.0000
vn 0.3500 0.8855 0.3055
vn 0.3459 0.8874 0.3049
usemtl None
s off
f 132/148/37 131/149/37 125/150/37 126/151/37 127/152/37 133/153/37 134/154/37 130/155/37 129/156/37 128/157/37
f 105/158/38 107/159/38 118/160/38 135/161/38
f 143/162/39 117/163/39 106/164/39 110/165/39
f 142/166/40 141/167/40 108/168/40 109/169/40
f 110/170/41 111/171/41 144/172/41 143/173/41
f 109/174/42 114/175/42 120/176/42 142/177/42
f 112/178/43 105/179/43 135/180/43 136/181/43
f 121/182/44 122/183/44 140/184/44 139/185/44 116/186/44 115/187/44 138/188/44 137/189/44 123/190/44 124/191/44
f 107/192/45 106/193/45 117/194/45 118/195/45
f 124/196/46 132/148/46 128/157/46 121/197/46
f 114/198/47 113/199/47 119/200/47 120/201/47
f 113/202/48 112/203/48 136/204/48 119/205/48
o GlassPane_cell.005_GlassPane_cell.004
v -0.020296 1.000000 1.000000
v 0.020296 1.000000 1.000000
v 0.020296 1.000000 0.651162
v 0.020296 0.883912 0.475298
v 0.020296 0.621155 0.078416
v 0.020296 0.195387 0.037269
v 0.020296 -0.004429 0.018251
v 0.020296 -0.013709 0.017863
v 0.020296 -0.043267 0.103390
v 0.020296 -0.085958 0.227479
v 0.020296 -0.186868 0.521243
v 0.020296 -0.185263 0.885081
v 0.020296 -0.184559 1.000000
v -0.020296 1.000000 0.670885
v -0.020296 0.749754 0.291783
v -0.020296 0.604956 0.073074
v -0.020296 0.370328 0.050398
v -0.020296 0.008063 0.015918
v -0.020296 0.002962 0.015705
v -0.020296 -0.101689 0.318515
v -0.020296 -0.125295 0.387130
v -0.020296 -0.181092 0.549564
v -0.020296 -0.180205 0.750745
v -0.020296 -0.178677 1.000000
v 0.020296 1.000000 0.651162
v 0.020296 0.883912 0.475298
v 0.020296 0.621155 0.078416
v 0.020296 0.195387 0.037269
v 0.020296 -0.004429 0.018251
v 0.020296 -0.013709 0.017863
v 0.020296 -0.043267 0.103390
v 0.020296 -0.085958 0.227479
v 0.020296 -0.186868 0.521243
v 0.020296 -0.185263 0.885081
v 0.020296 -0.184559 1.000000
v -0.020296 1.000000 0.670885
v -0.020296 0.749754 0.291783
v -0.020296 0.604956 0.073074
v -0.020296 0.370328 0.050398
v -0.020296 0.008063 0.015918
v -0.020296 0.002962 0.015705
v -0.020296 -0.101689 0.318515
v -0.020296 -0.125295 0.387130
v -0.020296 -0.181092 0.549564
v -0.020296 -0.180205 0.750745
v -0.020296 -0.178677 1.000000
vt 1.000000 0.529800
vt 0.466921 0.000000
vt 0.849435 0.000000
vt 1.000000 0.149639
vt 0.476930 0.750000
vt 0.476842 0.735635
vt 0.476642 0.690155
vt 0.489255 0.653435
vt 0.494592 0.637924
vt 0.498286 0.627233
vt 0.499446 0.627281
vt 0.524423 0.629659
vt 0.577644 0.634802
vt 0.610489 0.684412
vt 0.625000 0.706395
vt 0.625000 0.750000
vt 0.875000 0.708861
vt 0.875000 0.750000
vt 0.477665 1.000000
vt 0.625000 1.000000
vt 0.357085 0.357085
vt 1.000000 0.355749
vt 1.000000 0.644973
vt 0.645709 0.645709
vt 0.354181 0.354181
vt 0.892618 0.353875
vt 0.892494 0.642574
vt 0.642716 0.642716
vt 0.356858 0.356858
vt 1.000000 0.356830
vt 1.000000 0.644364
vt 0.644379 0.644379
vt 0.354793 0.354793
vt 0.355969 0.108007
vt 0.645788 0.107971
vt 0.643238 0.643238
vt 0.356830 0.356830
vt 1.000000 0.354793
vt 1.000000 0.643238
vt 0.644364 0.644364
vt 0.355749 0.355749
vt 0.356455 0.000000
vt 0.646254 0.000000
vt 0.644973 0.644973
vt 0.149639 0.149639
vt 1.000000 0.356858
vt 1.000000 0.644379
vt 0.529800 0.529800
vt 0.625000 0.041139
vt 0.593719 0.088527
vt 0.575620 0.115866
vt 0.546291 0.118700
vt 0.501008 0.123010
vt 0.500370 0.123037
vt 0.487289 0.085186
vt 0.484338 0.076609
vt 0.477364 0.056305
vt 0.477474 0.031157
vt 0.477665 0.000000
vt 0.625000 0.000000
vt 1.000000 0.642716
vt 0.357085 0.000000
vt 0.645709 0.000000
vt 1.000000 0.354181
vt 1.000000 0.643545
vt 0.150565 0.000000
vt 0.533079 0.000000
vt 1.000000 0.353746
vn -0.3477 -0.8862 -0.3063
vn 1.0000 0.0000 -0.0000
vn 0.0000 1.0000 0.0000
vn 0.0000 0.0000 1.0000
vn 0.0922 0.0958 -0.9911
vn -0.2586 0.8062 -0.5322
vn -0.3398 -0.8895 -0.3055
vn -0.1434 -0.9896 0.0061
vn -0.1379 -0.9904 0.0044
vn 0.0860 0.0944 -0.9918
vn -0.3413 -0.8888 -0.3058
vn -1.0000 -0.0000 0.0000
vn -0.2517 0.8070 -0.5343
vn 0.0701 0.0417 -0.9967
usemtl None
s off
f 186/206/49 163/207/49 152/208/49 175/209/49
f 179/210/50 178/211/50 177/212/50 176/213/50 153/214/50 174/215/50 173/216/50 172/217/50 171/218/50 170/219/50 169/220/50 146/221/50
f 169/220/51 158/222/51 145/223/51 146/221/51
f 190/224/52 179/210/52 146/221/52 145/225/52
f 149/226/53 150/227/53 183/228/53 160/229/53
f 181/230/54 180/231/54 147/232/54 148/233/54
f 154/234/55 155/235/55 188/236/55 187/237/55
f 156/238/56 157/239/56 168/240/56 189/241/56
f 155/242/57 156/243/57 189/244/57 188/245/57
f 150/246/58 151/247/58 184/248/58 183/249/58
f 175/250/59 154/251/59 187/252/59 186/253/59
f 158/254/60 159/255/60 182/256/60 161/257/60 162/258/60 185/259/60 164/260/60 165/261/60 166/262/60 167/263/60 190/264/60 145/265/60
f 148/266/61 149/267/61 160/268/61 181/269/61
f 151/270/62 152/271/62 163/272/62 184/273/62
o GlassPane_cell.006_GlassPane_cell.005
v -0.020296 -1.000000 -1.000000
v 0.020296 -1.000000 -1.000000
v -0.020296 -0.673316 -1.000000
v 0.020296 -0.685215 -1.000000
v 0.020296 -0.638111 -0.743753
v 0.020296 -0.529456 -0.151613
v 0.020296 -1.000000 -0.125952
v -0.020296 -0.580262 -0.493792
v -0.020296 -0.520407 -0.167598
v -0.020296 -1.000000 -0.141473
v 0.020296 -0.685215 -1.000000
v -0.020296 -0.673316 -1.000000
v 0.020296 -0.638111 -0.743753
v 0.020296 -0.529456 -0.151613
v 0.020296 -1.000000 -0.125952
v -0.020296 -0.580262 -0.493792
v -0.020296 -0.520407 -0.167598
v -0.020296 -1.000000 -0.141473
vt 0.375000 0.250000
vt 0.415836 0.250000
vt 0.414348 0.500000
vt 0.375000 0.500000
vt 0.420236 0.532031
vt 0.433818 0.606048
vt 0.375000 0.609256
vt 0.125000 0.500000
vt 0.125000 0.607316
vt 0.375000 0.142684
vt 0.434949 0.145950
vt 0.427467 0.186724
vt 0.355130 0.355130
vt 0.355254 0.058261
vt 0.645004 0.058303
vt 0.644759 0.644759
vt 0.356060 0.356060
vt 1.000000 0.355130
vt 1.000000 0.644759
vt 0.645271 0.645271
vt 0.736449 0.092655
vt 1.000000 0.356060
vt 1.000000 0.645271
vt 0.447407 0.092468
vn 0.0000 0.0000 -1.0000
vn 1.0000 0.0000 0.0000
vn 0.0000 -1.0000 0.0000
vn -1.0000 -0.0000 0.0000
vn 0.2770 0.9450 -0.1737
vn 0.2788 0.9446 -0.1733
vn -0.3564 0.0508 0.9329
usemtl None
s off
f 191/274/63 202/275/63 201/276/63 192/277/63
f 192/277/64 201/276/64 203/278/64 204/279/64 205/280/64
f 191/281/65 192/277/65 205/280/65 208/282/65
f 208/283/66 207/284/66 206/285/66 202/275/66 191/274/66
f 195/286/67 194/287/67 193/288/67 198/289/67
f 196/290/68 195/291/68 198/292/68 199/293/68
f 197/294/69 196/295/69 199/296/69 200/297/69
o GlassPane_cell.007_GlassPane_cell.006
v -0.020296 1.000000 -1.000000
v -0.020296 0.944475 -1.000000
v 0.017878 1.000000 -1.000000
v -0.020296 1.000000 -0.661314
v -0.020296 0.944475 -1.000000
v 0.017878 1.000000 -1.000000
v -0.020296 1.000000 -0.661314
vt 0.625000 0.485109
vt 0.618059 0.250000
vt 0.625000 0.250000
vt 0.625000 0.207664
vt 0.734283 0.056247
vt 0.733553 0.437195
vt 0.436668 0.056087
vt 0.875000 0.542336
vt 0.639891 0.500000
vt 0.875000 0.500000
vn 0.0000 0.0000 -1.0000
vn -1.0000 0.0000 0.0000
vn 0.8205 -0.5641 0.0925
vn 0.0000 1.0000 0.0000
usemtl None
s off
f 214/298/70 213/299/70 209/300/70
f 213/299/71 215/301/71 209/300/71
f 211/302/72 212/303/72 210/304/72
f 215/305/73 214/306/73 209/307/73
