# Blender v2.83.9 OBJ File: 'USBGame.blend'
# www.blender.org
mtllib CableHead.mtl
o ConnectorHead_Cube.038
v -0.020896 0.076985 -2.084387
v -0.051761 0.046563 -2.230538
v 0.020896 0.076985 -2.084387
v 0.051761 0.046563 -2.230538
v -0.010425 0.118175 -2.084387
v -0.020896 0.107855 -2.084387
v -0.051761 0.120456 -2.230538
v -0.023210 0.148597 -2.230538
v 0.020896 0.107855 -2.084387
v 0.010425 0.118175 -2.084387
v 0.023210 0.148597 -2.230538
v 0.051761 0.120456 -2.230538
v -0.051761 0.046563 -2.126585
v 0.051761 0.046563 -2.126585
v -0.051761 0.120456 -2.126585
v -0.023210 0.148597 -2.126585
v 0.023210 0.148597 -2.126585
v 0.051761 0.120456 -2.126585
v -0.040650 0.057514 -2.084387
v 0.040650 0.057514 -2.084387
v -0.040650 0.115920 -2.084387
v -0.018607 0.137646 -2.084387
v 0.018607 0.137646 -2.084387
v 0.040650 0.115920 -2.084387
v -0.020896 0.076985 -2.070121
v 0.020896 0.076985 -2.070121
v -0.020896 0.107855 -2.070121
v -0.010425 0.118175 -2.070121
v 0.010425 0.118175 -2.070121
v 0.020896 0.107855 -2.070121
vt 0.693950 0.500000
vt 0.806050 0.500000
vt 0.806050 0.750000
vt 0.693950 0.750000
vt 0.375000 0.500000
vt 0.556050 0.500000
vt 0.556050 0.750000
vt 0.375000 0.750000
vt 0.375000 0.000000
vt 0.556050 0.000000
vt 0.556050 0.250000
vt 0.375000 0.250000
vt 0.125000 0.500000
vt 0.125000 0.750000
vt 0.625000 0.318950
vt 0.625000 0.431050
vt 0.875000 0.500000
vt 0.875000 0.750000
vt 0.550462 0.849825
vt 0.550462 0.900175
vt 0.550462 0.900175
vt 0.550462 0.849825
vt 0.401832 0.776832
vt 0.401832 0.973168
vt 0.375000 1.000000
vt 0.544935 0.973168
vt 0.598168 0.919935
vt 0.625000 0.931050
vt 0.556050 1.000000
vt 0.598168 0.830065
vt 0.544935 0.776832
vt 0.625000 0.818950
vt 0.449538 0.824538
vt 0.449538 0.925462
vt 0.525175 0.925462
vt 0.525175 0.824539
vt 0.449538 0.824538
vt 0.525175 0.824539
vt 0.525175 0.925462
vt 0.449538 0.925462
vn 0.0000 1.0000 0.0000
vn 1.0000 0.0000 0.0000
vn -1.0000 0.0000 0.0000
vn 0.0000 -1.0000 0.0000
vn 0.0000 0.0000 -1.0000
vn -0.7020 0.7122 0.0000
vn 0.7020 0.7122 0.0000
vn 0.0000 -0.9679 0.2512
vn -0.6791 0.6891 0.2529
vn 0.6791 0.6891 0.2529
vn 0.9670 0.0000 0.2546
vn 0.0000 0.9679 0.2512
vn -0.9670 0.0000 0.2546
vn 0.0000 0.0000 1.0000
usemtl NeutralGray.004
s off
f 11/1/1 8/2/1 16/3/1 17/4/1
f 4/5/2 12/6/2 18/7/2 14/8/2
f 13/9/3 15/10/3 7/11/3 2/12/3
f 2/13/4 4/5/4 14/8/4 13/14/4
f 2/12/5 7/11/5 8/15/5 11/16/5 12/6/5 4/5/5
f 16/3/6 8/2/6 7/17/6 15/18/6
f 11/1/7 17/4/7 18/7/7 12/6/7
f 10/19/1 5/20/1 28/21/1 29/22/1
f 20/23/8 19/24/8 13/25/8 14/8/8
f 21/26/9 22/27/9 16/28/9 15/29/9
f 23/30/10 24/31/10 18/7/10 17/32/10
f 24/31/11 20/23/11 14/8/11 18/7/11
f 22/27/12 23/30/12 17/32/12 16/28/12
f 19/24/13 21/26/13 15/29/13 13/25/13
f 3/33/14 1/34/14 19/24/14 20/23/14
f 6/35/14 5/20/14 22/27/14 21/26/14
f 10/19/14 9/36/14 24/31/14 23/30/14
f 9/36/14 3/33/14 20/23/14 24/31/14
f 5/20/14 10/19/14 23/30/14 22/27/14
f 1/34/14 6/35/14 21/26/14 19/24/14
f 26/37/14 30/38/14 29/22/14 28/21/14 27/39/14 25/40/14
f 9/36/7 10/19/7 29/22/7 30/38/7
f 1/34/4 3/33/4 26/37/4 25/40/4
f 6/35/3 1/34/3 25/40/3 27/39/3
f 3/33/2 9/36/2 30/38/2 26/37/2
f 5/20/6 6/35/6 27/39/6 28/21/6
