# Blender v2.83.9 OBJ File: 'USBGame.blend'
# www.blender.org
mtllib Cable.mtl
o Cable_Cylinder.005
v 0.000000 0.113095 -2.076429
v 0.000000 0.113095 -2.048150
v 0.012245 0.106025 -2.076429
v 0.012245 0.106025 -2.048150
v 0.012245 0.091885 -2.076429
v 0.012245 0.091885 -2.048150
v -0.000000 0.084815 -2.076429
v -0.000000 0.084815 -2.048150
v -0.012245 0.091885 -2.076429
v -0.012245 0.091885 -2.048150
v -0.012245 0.106025 -2.076429
v -0.012245 0.106025 -2.048150
v 0.012245 0.025618 -1.736568
v 0.000000 0.032688 -1.736568
v 0.012245 0.011478 -1.736568
v 0.000000 0.004408 -1.736568
v -0.012245 0.011478 -1.736568
v -0.012245 0.025618 -1.736568
v 0.012245 0.025618 -1.701497
v 0.000000 0.032688 -1.701497
v 0.012245 0.011478 -1.701497
v 0.000000 0.004408 -1.701497
v -0.012245 0.011478 -1.701497
v -0.012245 0.025618 -1.701497
v 0.012245 0.103584 -1.353653
v -0.000000 0.110654 -1.353653
v 0.012245 0.089444 -1.353653
v -0.000000 0.082374 -1.353653
v -0.012245 0.089444 -1.353653
v -0.012245 0.103584 -1.353653
v 0.012245 0.103584 -1.316529
v 0.000000 0.110654 -1.316529
v 0.012245 0.089444 -1.316529
v 0.000000 0.082374 -1.316529
v -0.012245 0.089444 -1.316529
v -0.012245 0.103584 -1.316529
vt 1.000000 0.500000
vt 1.000000 1.000000
vt 0.833333 1.000000
vt 0.833333 0.500000
vt 0.666667 1.000000
vt 0.666667 0.500000
vt 0.500000 1.000000
vt 0.500000 0.500000
vt 0.333333 1.000000
vt 0.333333 0.500000
vt 0.666667 1.000000
vt 0.500000 1.000000
vt 0.166667 1.000000
vt 0.166667 0.500000
vt -0.000000 1.000000
vt -0.000000 0.500000
vt 0.750000 0.490000
vt 0.957846 0.370000
vt 0.957846 0.130000
vt 0.750000 0.010000
vt 0.542154 0.130000
vt 0.542154 0.370000
vt 0.333333 1.000000
vt 0.500000 1.000000
vt 0.333333 1.000000
vt 0.166667 1.000000
vt -0.000000 1.000000
vt 0.833333 1.000000
vt 1.000000 1.000000
vt 0.666667 1.000000
vt 0.666667 1.000000
vt 0.500000 1.000000
vt 0.833333 1.000000
vt 0.166667 1.000000
vt 1.000000 1.000000
vt -0.000000 1.000000
vt 0.833333 1.000000
vt 0.833333 1.000000
vt 0.666667 1.000000
vt 1.000000 1.000000
vt 0.166667 1.000000
vt -0.000000 1.000000
vt 0.333333 1.000000
vt 0.457846 0.370000
vt 0.250000 0.490000
vt 0.042154 0.370000
vt 0.042154 0.130000
vt 0.250000 0.010000
vt 0.457846 0.130000
vt 0.333333 1.000000
vt 0.166667 1.000000
vt 0.500000 1.000000
vt 1.000000 1.000000
vt -0.000000 1.000000
vn 0.5000 0.8660 0.0000
vn 1.0000 -0.0000 0.0000
vn 0.5000 -0.8660 -0.0000
vn -0.5000 -0.8660 -0.0000
vn 0.4880 -0.8452 -0.2181
vn -1.0000 0.0000 0.0000
vn -0.5000 0.8660 0.0000
vn -0.0000 0.0000 -1.0000
vn -0.4880 0.8452 0.2181
vn -0.4880 -0.8452 -0.2181
vn 0.4880 0.8452 0.2181
vn 0.4908 -0.8502 0.1906
vn 0.4908 0.8502 -0.1906
vn -0.4908 0.8502 -0.1906
vn -0.4908 -0.8502 0.1906
vn 0.0000 0.0000 1.0000
usemtl NeutralGray.002
s off
f 1/1/1 2/2/1 4/3/1 3/4/1
f 3/4/2 4/3/2 6/5/2 5/6/2
f 5/6/3 6/5/3 8/7/3 7/8/3
f 7/8/4 8/7/4 10/9/4 9/10/4
f 8/7/5 6/5/5 15/11/5 16/12/5
f 9/10/6 10/9/6 12/13/6 11/14/6
f 11/14/7 12/13/7 2/15/7 1/16/7
f 1/17/8 3/18/8 5/19/8 7/20/8 9/21/8 11/22/8
f 17/23/4 16/12/4 22/24/4 23/25/4
f 2/15/9 12/13/9 18/26/9 14/27/9
f 10/9/10 8/7/10 16/12/10 17/23/10
f 6/5/2 4/3/2 13/28/2 15/11/2
f 12/13/6 10/9/6 17/23/6 18/26/6
f 4/3/11 2/2/11 14/29/11 13/28/11
f 22/24/12 21/30/12 27/31/12 28/32/12
f 15/11/2 13/28/2 19/33/2 21/30/2
f 18/26/6 17/23/6 23/25/6 24/34/6
f 16/12/3 15/11/3 21/30/3 22/24/3
f 13/28/1 14/29/1 20/35/1 19/33/1
f 14/27/7 18/26/7 24/34/7 20/36/7
f 27/31/2 25/37/2 31/38/2 33/39/2
f 19/33/13 20/35/13 26/40/13 25/37/13
f 20/36/14 24/34/14 30/41/14 26/42/14
f 23/25/15 22/24/15 28/32/15 29/43/15
f 21/30/2 19/33/2 25/37/2 27/31/2
f 24/34/6 23/25/6 29/43/6 30/41/6
f 31/44/16 32/45/16 36/46/16 35/47/16 34/48/16 33/49/16
f 30/41/6 29/43/6 35/50/6 36/51/6
f 28/32/3 27/31/3 33/39/3 34/52/3
f 25/37/1 26/40/1 32/53/1 31/38/1
f 26/42/7 30/41/7 36/51/7 32/54/7
f 29/43/4 28/32/4 34/52/4 35/50/4
