# Blender v2.83.9 OBJ File: 'USBGame.blend'
# www.blender.org
mtllib CouchCushion.mtl
o Cushion1_Cube.050
v 0.189365 0.318666 0.747246
v 0.189365 0.341242 0.969435
v 0.031587 0.341242 0.747246
v 0.189365 0.493088 0.969435
v 0.189365 0.515663 0.747246
v 0.031587 0.493088 0.747246
v 0.189365 0.318666 -0.747246
v 0.031587 0.341242 -0.747246
v 0.189365 0.341242 -0.969435
v 0.189365 0.515663 -0.747246
v 0.189365 0.493088 -0.969435
v 0.031587 0.493088 -0.747246
v 1.250612 0.318666 0.747246
v 1.408390 0.341242 0.747246
v 1.250612 0.341242 0.969435
v 1.250612 0.515663 0.747246
v 1.250612 0.493088 0.969435
v 1.408390 0.493088 0.747246
v 1.250612 0.318666 -0.747246
v 1.250612 0.341242 -0.969435
v 1.408390 0.341242 -0.747246
v 1.250612 0.515663 -0.747246
v 1.408390 0.493088 -0.747246
v 1.250612 0.493088 -0.969435
vt 0.403649 0.778649
vt 0.596351 0.778649
vt 0.596351 0.971351
vt 0.403649 0.971351
vt 0.403649 0.528649
vt 0.596351 0.528649
vt 0.596351 0.721351
vt 0.403649 0.721351
vt 0.653649 0.528649
vt 0.846351 0.528649
vt 0.846351 0.721351
vt 0.653649 0.721351
vt 0.403649 0.028649
vt 0.596351 0.028649
vt 0.596351 0.221351
vt 0.403649 0.221351
vt 0.403649 0.278649
vt 0.596351 0.278649
vt 0.596351 0.471351
vt 0.403649 0.471351
vt 0.153649 0.721351
vt 0.153649 0.750000
vt 0.125000 0.721351
vt 0.625000 0.971351
vt 0.596351 1.000000
vt 0.153649 0.528649
vt 0.125000 0.528649
vt 0.153649 0.500000
vt 0.846351 0.500000
vt 0.875000 0.528649
vt 0.346351 0.721351
vt 0.375000 0.721351
vt 0.346351 0.750000
vt 0.653649 0.750000
vt 0.625000 0.721351
vt 0.346351 0.528649
vt 0.346351 0.500000
vt 0.375000 0.528649
vt 0.625000 0.528649
vt 0.653649 0.500000
vt 0.403649 1.000000
vt 0.875000 0.721351
vt 0.846351 0.750000
vn 0.0000 0.0000 1.0000
vn 1.0000 0.0000 0.0000
vn 0.0000 1.0000 0.0000
vn -1.0000 0.0000 0.0000
vn 0.0000 0.0000 -1.0000
vn -0.1409 -0.9849 0.1001
vn -0.1409 0.9849 0.1001
vn -0.1409 -0.9849 -0.1001
vn -0.1409 0.9849 -0.1001
vn 0.1409 -0.9849 0.1001
vn 0.1409 0.9849 0.1001
vn 0.1409 -0.9849 -0.1001
vn 0.1409 0.9849 -0.1001
vn -0.1416 -0.9899 0.0000
vn -0.8153 0.0000 0.5790
vn -0.1416 0.9899 0.0000
vn -0.8153 0.0000 -0.5790
vn 0.0000 -0.9949 -0.1011
vn 0.0000 0.9949 -0.1011
vn 0.8153 0.0000 -0.5790
vn 0.1416 -0.9899 0.0000
vn 0.1416 0.9899 0.0000
vn 0.8153 0.0000 0.5790
vn 0.0000 -0.9949 0.1011
vn 0.0000 0.9949 0.1011
vn 0.0000 -1.0000 0.0000
usemtl Slate
s off
f 15/1/1 17/2/1 4/3/1 2/4/1
f 21/5/2 23/6/2 18/7/2 14/8/2
f 22/9/3 10/10/3 5/11/3 16/12/3
f 3/13/4 6/14/4 12/15/4 8/16/4
f 9/17/5 11/18/5 24/19/5 20/20/5
f 1/21/6 2/22/6 3/23/6
f 4/3/7 5/24/7 6/25/7
f 7/26/8 8/27/8 9/28/8
f 10/10/9 11/29/9 12/30/9
f 13/31/10 14/32/10 15/33/10
f 16/12/11 17/34/11 18/35/11
f 19/36/12 20/37/12 21/38/12
f 22/9/13 23/39/13 24/40/13
f 7/26/14 1/21/14 3/23/14 8/27/14
f 2/4/15 4/3/15 6/25/15 3/41/15
f 5/11/16 10/10/16 12/30/16 6/42/16
f 11/18/17 9/17/17 8/16/17 12/15/17
f 19/36/18 7/26/18 9/28/18 20/37/18
f 10/10/19 22/9/19 24/40/19 11/29/19
f 23/6/20 21/5/20 20/20/20 24/19/20
f 13/31/21 19/36/21 21/5/21 14/8/21
f 22/9/22 16/12/22 18/7/22 23/6/22
f 17/2/23 15/1/23 14/8/23 18/7/23
f 1/21/24 13/31/24 15/33/24 2/22/24
f 16/12/25 5/11/25 4/43/25 17/34/25
f 7/26/26 19/36/26 13/31/26 1/21/26
