# Blender v2.83.9 OBJ File: 'USBGame.blend'
# www.blender.org
mtllib Couch.mtl
o Couch_Cube.049
v 1.876630 -0.333179 0.906085
v 2.131798 0.333179 1.000000
v 2.071140 -0.333179 -1.000000
v 2.071140 0.333179 -1.000000
v 1.430428 -0.333179 -1.000000
v 1.430428 0.333179 -1.000000
v 1.430428 -0.333179 0.906085
v 1.430428 -0.333179 -1.396202
v 1.430428 0.333179 -1.396202
v 1.430428 1.850500 -1.128763
v 1.430428 1.807599 -1.000000
v 2.071140 1.850500 -1.128763
v 2.071140 1.807599 -1.000000
v 1.430428 1.807599 -1.396202
v 1.430428 1.850500 -1.267439
v 2.071140 1.850500 -1.267439
v 1.430428 0.904457 -1.000000
v 1.555209 0.924530 -1.000000
v 1.946359 0.924530 -1.000000
v 2.071140 0.904457 -1.000000
v 1.946359 0.924530 1.000000
v 2.131798 0.904457 1.000000
v 1.430428 0.904457 1.000000
v 1.555209 0.924530 1.000000
v 2.131798 0.333179 1.102284
v 1.430428 0.333179 1.102284
v 2.131798 0.904457 1.102284
v 1.876667 0.897464 1.183520
v 1.946359 0.924530 1.102284
v 1.624901 0.897464 1.183520
v 1.555209 0.924530 1.102284
v 1.430428 0.904457 1.102284
v 2.131798 0.339870 1.122365
v 1.944480 0.360246 1.183520
v 1.557088 0.360246 1.183520
v 1.430428 0.339870 1.122365
v 1.944480 0.886555 1.183520
v 2.131798 0.894994 1.122365
v 1.430428 0.894994 1.122365
v 1.557088 0.886555 1.183520
v 2.007323 0.333179 -1.396202
v 2.071140 0.333179 -1.365389
v 2.007323 -0.333179 -1.396202
v 2.071140 -0.333179 -1.365389
v 2.071140 1.817865 -1.365389
v 2.007323 1.807599 -1.396202
v 1.430428 0.333179 0.909899
v 1.430428 0.303160 1.000000
v 1.617039 0.333179 1.000000
v 1.430428 0.333179 1.090101
v 1.430428 0.363199 1.000000
v 2.071140 0.318900 -1.000000
v 2.071140 0.318900 1.000000
v 1.430428 0.318900 -1.396202
v 2.071140 0.318900 -1.365389
v 2.007323 0.318900 -1.396202
v 1.876630 -0.333179 -0.893668
v 2.131798 0.333179 -0.987583
v 1.430428 -0.333179 -0.987583
v 1.946359 0.924530 -0.987583
v 2.131798 0.904457 -0.987583
v 1.430428 0.904457 -0.987583
v 1.555209 0.924530 -0.987583
v 2.071140 0.318900 -0.987583
v 1.430428 -0.333179 1.000000
v 2.071140 -0.333179 1.000000
v 2.071140 -0.333179 -0.987583
v 1.430428 -0.333179 -0.893668
v 1.430428 -0.293862 -0.893668
v 1.430428 -0.293862 0.906085
v 1.876630 -0.293862 0.906085
v 1.876630 -0.293862 -0.893668
v -1.876630 -0.333179 0.906085
v -2.131798 0.333179 1.000000
v -2.071140 -0.333179 -1.000000
v -2.071140 0.333179 -1.000000
v -1.430428 -0.333179 -1.000000
v -1.430428 0.333179 -1.000000
v -1.430428 -0.333179 0.906085
v -1.430428 -0.333179 -1.396202
v -1.430428 0.333179 -1.396202
v -1.430428 1.850500 -1.128763
v -1.430428 1.807599 -1.000000
v -2.071140 1.850500 -1.128763
v -2.071140 1.807599 -1.000000
v -1.430428 1.807599 -1.396202
v -1.430428 1.850500 -1.267439
v -2.071140 1.850500 -1.267439
v -1.430428 0.904457 -1.000000
v -1.555209 0.924530 -1.000000
v -1.946359 0.924530 -1.000000
v -2.071140 0.904457 -1.000000
v -1.946359 0.924530 1.000000
v -2.131798 0.904457 1.000000
v -1.430428 0.904457 1.000000
v -1.555209 0.924530 1.000000
v -2.131798 0.333179 1.102284
v -1.430428 0.333179 1.102284
v -2.131798 0.904457 1.102284
v -1.876667 0.897464 1.183520
v -1.946359 0.924530 1.102284
v -1.624901 0.897464 1.183520
v -1.555209 0.924530 1.102284
v -1.430428 0.904457 1.102284
v -2.131798 0.339870 1.122365
v -1.944480 0.360246 1.183520
v -1.557088 0.360246 1.183520
v -1.430428 0.339870 1.122365
v -1.944480 0.886555 1.183520
v -2.131798 0.894994 1.122365
v -1.430428 0.894994 1.122365
v -1.557088 0.886555 1.183520
v -2.007323 0.333179 -1.396202
v -2.071140 0.333179 -1.365389
v -2.007323 -0.333179 -1.396202
v -2.071140 -0.333179 -1.365389
v -2.071140 1.817865 -1.365389
v -2.007323 1.807599 -1.396202
v -1.430428 0.333179 0.909899
v -1.430428 0.303160 1.000000
v -1.617039 0.333179 1.000000
v -1.430428 0.333179 1.090101
v -1.430428 0.363199 1.000000
v -2.071140 0.318900 -1.000000
v -2.071140 0.318900 1.000000
v -1.430428 0.318900 -1.396202
v -2.071140 0.318900 -1.365389
v -2.007323 0.318900 -1.396202
v -1.876630 -0.333179 -0.893668
v -2.131798 0.333179 -0.987583
v -1.430428 -0.333179 -0.987583
v -1.946359 0.924530 -0.987583
v -2.131798 0.904457 -0.987583
v -1.430428 0.904457 -0.987583
v -1.555209 0.924530 -0.987583
v -2.071140 0.318900 -0.987583
v -1.430428 -0.333179 1.000000
v -2.071140 -0.333179 1.000000
v -2.071140 -0.333179 -0.987583
v -1.430428 -0.333179 -0.893668
v -1.430428 -0.293862 -0.893668
v -1.430428 -0.293862 0.906085
v -1.876630 -0.293862 0.906085
v -1.876630 -0.293862 -0.893668
v 0.000000 -0.333179 -1.000000
v 0.000000 0.333179 -1.000000
v 0.000000 -0.333179 1.000000
v 0.000000 1.807599 -1.000000
v 0.000000 1.850500 -1.128763
v 0.000000 1.850500 -1.267439
v 0.000000 -0.333179 -1.396202
v 0.000000 0.333179 -1.396202
v 0.000000 1.807599 -1.396202
v 0.000000 0.333179 0.909899
v 0.000000 0.303160 1.000000
v 0.000000 0.318900 -1.396202
v 0.000000 -0.333179 -0.987583
v 0.000000 -0.333179 0.906085
v 0.000000 -0.333179 -0.893668
v 0.000000 -0.293862 0.906085
v 0.000000 -0.293862 -0.893668
vt 0.625000 0.496148
vt 0.625000 0.461331
vt 0.625000 0.461331
vt 0.625000 0.496148
vt 0.619643 0.501552
vt 0.625000 0.501552
vt 0.625000 0.750000
vt 0.619643 0.750000
vt 0.250000 0.513291
vt 0.336331 0.513291
vt 0.336331 0.513291
vt 0.250000 0.513291
vt 0.625000 0.788669
vt 0.625000 0.777407
vt 0.625000 0.750000
vt 0.625000 0.788669
vt 0.656138 0.750000
vt 0.656138 0.750000
vt 0.663669 0.750000
vt 0.663669 0.750000
vt 0.363261 0.738261
vt 0.336331 0.738261
vt 0.336331 0.738261
vt 0.363261 0.738261
vt 0.663669 0.500000
vt 0.663669 0.738737
vt 0.663669 0.750000
vt 0.663669 0.501552
vt 0.663669 0.500000
vt 0.625000 0.500000
vt 0.625000 0.500000
vt 0.625000 0.500000
vt 0.625000 0.500000
vt 0.625000 0.500000
vt 0.625000 0.500000
vt 0.663669 0.750000
vt 0.663669 0.750000
vt 0.663669 0.750000
vt 0.663669 0.750000
vt 0.632531 0.501552
vt 0.656138 0.501552
vt 0.632531 0.750000
vt 0.625000 0.500000
vt 0.625000 0.501552
vt 0.619643 0.500000
vt 0.375000 0.500000
vt 0.375000 0.500000
vt 0.619643 0.500000
vt 0.619643 0.375000
vt 0.625000 0.375000
vt 0.619643 0.461331
vt 0.625000 0.461331
vt 0.336331 0.500000
vt 0.336331 0.500000
vt 0.371148 0.500000
vt 0.750000 0.500000
vt 0.663669 0.500000
vt 0.750000 0.500000
vt 0.750000 0.500000
vt 0.663669 0.500000
vt 0.663669 0.500000
vt 0.750000 0.500000
vt 0.619643 0.496148
vt 0.625000 0.461331
vt 0.375000 0.750000
vt 0.613737 0.788669
vt 0.375000 0.788669
vt 0.625000 0.761737
vt 0.625000 0.757644
vt 0.625000 0.750000
vt 0.625000 0.750000
vt 0.625000 0.757531
vt 0.625000 0.750000
vt 0.632531 0.750000
vt 0.625000 0.461331
vt 0.663669 0.500000
vt 0.750000 0.500000
vt 0.625000 0.461331
vt 0.625000 0.461331
vt 0.625000 0.468862
vt 0.625000 0.492469
vt 0.625000 0.781025
vt 0.625000 0.757644
vt 0.625000 0.776932
vt 0.625000 0.781025
vt 0.625000 0.788669
vt 0.625000 0.781138
vt 0.625000 0.788669
vt 0.625000 0.750000
vt 0.663669 0.750000
vt 0.663669 0.750000
vt 0.625000 0.788669
vt 0.375000 0.496148
vt 0.663669 0.750000
vt 0.663669 0.750000
vt 0.375000 0.461331
vt 0.375000 0.375000
vt 0.375000 0.501552
vt 0.656138 0.500000
vt 0.632531 0.500000
vt 0.250000 0.500000
vt 0.336331 0.501552
vt 0.250000 0.501552
vt 0.336331 0.750000
vt 0.250000 0.738261
vt 0.250000 0.750000
vt 0.363261 0.513291
vt 0.363261 0.513291
vt 0.250000 0.738261
vt 0.750000 0.738737
vt 0.750000 0.750000
vt 0.625000 0.375000
vt 0.613737 0.875000
vt 0.375000 0.875000
vt 0.250000 0.500000
vt 0.625000 0.496148
vt 0.625000 0.496148
vt 0.625000 0.461331
vt 0.625000 0.461331
vt 0.619643 0.501552
vt 0.619643 0.750000
vt 0.625000 0.750000
vt 0.625000 0.501552
vt 0.336331 0.513291
vt 0.336331 0.513291
vt 0.625000 0.788669
vt 0.625000 0.788669
vt 0.625000 0.750000
vt 0.625000 0.777407
vt 0.656138 0.750000
vt 0.663669 0.750000
vt 0.663669 0.750000
vt 0.656138 0.750000
vt 0.363261 0.738261
vt 0.363261 0.738261
vt 0.336331 0.738261
vt 0.336331 0.738261
vt 0.663669 0.500000
vt 0.663669 0.500000
vt 0.663669 0.501552
vt 0.663669 0.750000
vt 0.663669 0.738737
vt 0.625000 0.500000
vt 0.625000 0.500000
vt 0.625000 0.500000
vt 0.625000 0.500000
vt 0.625000 0.500000
vt 0.625000 0.500000
vt 0.663669 0.750000
vt 0.663669 0.750000
vt 0.663669 0.750000
vt 0.663669 0.750000
vt 0.632531 0.501552
vt 0.632531 0.750000
vt 0.656138 0.501552
vt 0.625000 0.501552
vt 0.625000 0.500000
vt 0.619643 0.500000
vt 0.619643 0.500000
vt 0.375000 0.500000
vt 0.375000 0.500000
vt 0.619643 0.461331
vt 0.625000 0.461331
vt 0.371148 0.500000
vt 0.336331 0.500000
vt 0.336331 0.500000
vt 0.663669 0.500000
vt 0.663669 0.500000
vt 0.663669 0.500000
vt 0.619643 0.496148
vt 0.625000 0.461331
vt 0.375000 0.750000
vt 0.375000 0.788669
vt 0.613737 0.788669
vt 0.625000 0.761737
vt 0.625000 0.757531
vt 0.625000 0.750000
vt 0.625000 0.750000
vt 0.625000 0.757644
vt 0.632531 0.750000
vt 0.625000 0.750000
vt 0.625000 0.461331
vt 0.663669 0.500000
vt 0.625000 0.461331
vt 0.625000 0.492469
vt 0.625000 0.468862
vt 0.625000 0.461331
vt 0.625000 0.781025
vt 0.625000 0.781025
vt 0.625000 0.776932
vt 0.625000 0.757644
vt 0.625000 0.788669
vt 0.625000 0.788669
vt 0.625000 0.781138
vt 0.625000 0.750000
vt 0.663669 0.750000
vt 0.663669 0.750000
vt 0.625000 0.788669
vt 0.375000 0.496148
vt 0.663669 0.750000
vt 0.663669 0.750000
vt 0.375000 0.461331
vt 0.375000 0.501552
vt 0.656138 0.500000
vt 0.632531 0.500000
vt 0.336331 0.501552
vt 0.336331 0.750000
vt 0.363261 0.513291
vt 0.363261 0.513291
vn 0.0000 0.0000 -1.0000
vn 0.2291 -0.9734 0.0000
vn 0.0000 0.0000 1.0000
vn 0.0000 -1.0000 0.0000
vn -0.1588 0.9873 0.0000
vn -1.0000 0.0000 0.0000
vn 1.0000 -0.0000 0.0000
vn 0.0000 1.0000 0.0000
vn 0.2005 0.0000 -0.9797
vn 0.0000 0.9487 -0.3161
vn 0.1082 0.8996 0.4232
vn 0.1076 0.9942 0.0000
vn 0.0000 0.9487 0.3161
vn -0.1440 0.8952 0.4218
vn -0.4348 0.0000 0.9005
vn 0.3104 0.0000 0.9506
vn 0.0000 -0.9487 0.3161
vn 0.4348 0.0000 -0.9005
vn -0.4163 -0.8626 0.2874
vn 0.1225 0.9463 -0.2991
vn 0.2952 -0.6270 -0.7210
vn -0.2291 -0.9734 0.0000
vn 0.1588 0.9873 0.0000
vn -0.2005 0.0000 -0.9797
vn -0.1082 0.8996 0.4232
vn -0.1076 0.9942 0.0000
vn 0.1440 0.8952 0.4218
vn 0.4348 0.0000 0.9005
vn -0.3104 0.0000 0.9506
vn -0.4348 0.0000 -0.9005
vn 0.4163 -0.8626 0.2874
vn -0.1225 0.9463 -0.2991
vn -0.2952 -0.6270 -0.7210
usemtl NeutralGray.003
s off
f 41/1/1 9/2/1 14/3/1 46/4/1
f 64/5/2 58/6/2 2/7/2 53/8/2
f 159/9/3 68/10/3 69/11/3 161/12/3
f 50/13/4 49/14/4 2/7/4 25/15/4 26/16/4
f 31/17/5 24/18/5 23/19/5 32/20/5
f 1/21/1 7/22/1 70/23/1 71/24/1
f 6/25/6 47/26/6 51/27/6 23/19/6 62/28/6 17/29/6
f 4/30/7 42/31/7 45/32/7 16/33/7 12/34/7 13/35/7
f 23/19/6 51/27/6 50/36/6 26/37/6 36/38/6 39/39/6 32/20/6
f 60/40/8 63/41/8 24/18/8 21/42/8
f 58/6/9 4/30/9 20/43/9 61/44/9
f 52/45/7 3/46/7 44/47/7 55/48/7
f 156/49/1 152/50/1 9/2/1 54/51/1
f 15/52/10 16/33/10 45/32/10 46/4/10 14/3/10
f 3/46/4 5/53/4 8/54/4 43/55/4 44/47/4
f 146/56/3 6/25/3 11/57/3 148/58/3
f 149/59/8 10/60/8 15/61/8 150/62/8
f 54/51/1 9/2/1 41/1/1 56/63/1
f 10/64/8 12/34/8 16/33/8 15/52/8
f 66/65/3 53/8/3 2/7/3 49/14/3 48/66/3 65/67/3
f 28/68/11 37/69/11 38/70/11 27/71/11 29/72/11
f 27/71/12 22/73/12 21/42/12 29/74/12
f 11/75/13 13/35/13 12/34/13 10/64/13
f 148/58/13 11/57/13 10/60/13 149/59/13
f 150/62/10 15/61/10 14/76/10 153/77/10
f 6/78/3 4/30/3 13/35/3 11/75/3
f 60/40/12 21/42/12 22/73/12 61/44/12
f 62/28/5 23/19/5 24/18/5 63/41/5
f 21/42/8 24/18/8 31/17/8 29/74/8
f 4/30/1 6/78/1 17/79/1 18/80/1 19/81/1 20/43/1
f 35/82/3 34/83/3 37/69/3 28/68/3 30/84/3 40/85/3
f 39/86/14 40/85/14 30/84/14 31/87/14 32/88/14
f 30/84/13 28/68/13 29/72/13 31/87/13
f 2/7/7 22/73/7 27/71/7 38/70/7 33/89/7 25/15/7
f 39/39/15 36/38/15 35/90/15 40/91/15
f 33/89/16 38/70/16 37/69/16 34/83/16
f 33/89/17 34/83/17 35/82/17 36/92/17 26/16/17 25/15/17
f 55/48/18 44/47/18 43/93/18 56/63/18
f 41/1/18 46/4/18 45/32/18 42/31/18
f 47/26/19 48/94/19 49/95/19 50/36/19 51/27/19
f 42/31/18 55/48/18 56/63/18 41/1/18
f 8/96/1 54/51/1 56/63/1 43/93/1
f 151/97/1 156/49/1 54/51/1 8/96/1
f 4/30/7 52/45/7 55/48/7 42/31/7
f 67/98/7 64/5/7 53/8/7 66/65/7
f 3/46/7 52/45/7 64/5/7 67/98/7
f 17/29/5 62/28/5 63/41/5 18/99/5
f 19/100/20 60/40/20 61/44/20 20/43/20
f 2/7/7 58/6/7 61/44/7 22/73/7
f 19/100/8 18/99/8 63/41/8 60/40/8
f 145/101/4 5/53/4 59/102/4 157/103/4
f 5/53/4 3/46/4 67/98/4 59/102/4
f 52/45/21 4/30/21 58/6/21 64/5/21
f 7/22/4 1/21/4 66/65/4 65/104/4
f 158/105/4 7/22/4 65/104/4 147/106/4
f 1/21/4 57/107/4 67/98/4 66/65/4
f 57/107/4 68/10/4 59/102/4 67/98/4
f 68/10/3 57/107/3 72/108/3 69/11/3
f 57/107/6 1/21/6 71/24/6 72/108/6
f 7/22/1 158/105/1 160/109/1 70/23/1
f 68/10/4 159/9/4 157/103/4 59/102/4
f 47/26/13 154/110/13 155/111/13 48/94/13
f 9/2/1 152/50/1 153/112/1 14/3/1
f 65/67/3 48/66/3 155/113/3 147/114/3
f 6/25/8 146/56/8 154/110/8 47/26/8
f 5/53/4 145/101/4 151/115/4 8/54/4
f 113/116/1 118/117/1 86/118/1 81/119/1
f 136/120/22 125/121/22 74/122/22 130/123/22
f 159/9/3 161/12/3 141/124/3 140/125/3
f 122/126/4 98/127/4 97/128/4 74/122/4 121/129/4
f 103/130/23 104/131/23 95/132/23 96/133/23
f 73/134/1 143/135/1 142/136/1 79/137/1
f 78/138/7 89/139/7 134/140/7 95/132/7 123/141/7 119/142/7
f 76/143/6 85/144/6 84/145/6 88/146/6 117/147/6 114/148/6
f 95/132/7 104/131/7 111/149/7 108/150/7 98/151/7 122/152/7 123/141/7
f 132/153/8 93/154/8 96/133/8 135/155/8
f 130/123/24 133/156/24 92/157/24 76/143/24
f 124/158/6 127/159/6 116/160/6 75/161/6
f 156/49/1 126/162/1 81/119/1 152/50/1
f 87/163/10 86/118/10 118/117/10 117/147/10 88/146/10
f 75/161/4 116/160/4 115/164/4 80/165/4 77/166/4
f 146/56/3 148/58/3 83/167/3 78/138/3
f 149/59/8 150/62/8 87/168/8 82/169/8
f 126/162/1 128/170/1 113/116/1 81/119/1
f 82/171/8 87/163/8 88/146/8 84/145/8
f 138/172/3 137/173/3 120/174/3 121/129/3 74/122/3 125/121/3
f 100/175/25 101/176/25 99/177/25 110/178/25 109/179/25
f 99/177/26 101/180/26 93/154/26 94/181/26
f 83/182/13 82/171/13 84/145/13 85/144/13
f 148/58/13 149/59/13 82/169/13 83/167/13
f 150/62/10 153/77/10 86/183/10 87/168/10
f 78/184/3 83/182/3 85/144/3 76/143/3
f 132/153/26 133/156/26 94/181/26 93/154/26
f 134/140/23 135/155/23 96/133/23 95/132/23
f 93/154/8 101/180/8 103/130/8 96/133/8
f 76/143/1 92/157/1 91/185/1 90/186/1 89/187/1 78/184/1
f 107/188/3 112/189/3 102/190/3 100/175/3 109/179/3 106/191/3
f 111/192/27 104/193/27 103/194/27 102/190/27 112/189/27
f 102/190/13 103/194/13 101/176/13 100/175/13
f 74/122/6 97/128/6 105/195/6 110/178/6 99/177/6 94/181/6
f 111/149/28 112/196/28 107/197/28 108/150/28
f 105/195/29 106/191/29 109/179/29 110/178/29
f 105/195/17 97/128/17 98/127/17 108/198/17 107/188/17 106/191/17
f 127/159/30 128/170/30 115/199/30 116/160/30
f 113/116/30 114/148/30 117/147/30 118/117/30
f 119/142/31 123/141/31 122/152/31 121/200/31 120/201/31
f 114/148/30 113/116/30 128/170/30 127/159/30
f 80/202/1 115/199/1 128/170/1 126/162/1
f 151/97/1 80/202/1 126/162/1 156/49/1
f 76/143/6 114/148/6 127/159/6 124/158/6
f 139/203/6 138/172/6 125/121/6 136/120/6
f 75/161/6 139/203/6 136/120/6 124/158/6
f 89/139/23 90/204/23 135/155/23 134/140/23
f 91/205/32 92/157/32 133/156/32 132/153/32
f 74/122/6 94/181/6 133/156/6 130/123/6
f 91/205/8 132/153/8 135/155/8 90/204/8
f 145/101/4 157/103/4 131/206/4 77/166/4
f 77/166/4 131/206/4 139/203/4 75/161/4
f 124/158/33 136/120/33 130/123/33 76/143/33
f 79/137/4 137/207/4 138/172/4 73/134/4
f 158/105/4 147/106/4 137/207/4 79/137/4
f 73/134/4 138/172/4 139/203/4 129/208/4
f 129/208/4 139/203/4 131/206/4 140/125/4
f 140/125/3 141/124/3 144/209/3 129/208/3
f 129/208/7 144/209/7 143/135/7 73/134/7
f 79/137/1 142/136/1 160/109/1 158/105/1
f 140/125/4 131/206/4 157/103/4 159/9/4
f 119/142/13 120/201/13 155/111/13 154/110/13
f 81/119/1 86/118/1 153/112/1 152/50/1
f 137/173/3 147/114/3 155/113/3 120/174/3
f 78/138/8 119/142/8 154/110/8 146/56/8
f 77/166/4 80/165/4 151/115/4 145/101/4
usemtl NeutralGray.002
f 69/11/4 72/108/4 71/24/4 70/23/4
f 161/12/4 69/11/4 70/23/4 160/109/4
f 141/124/4 142/136/4 143/135/4 144/209/4
f 161/12/4 160/109/4 142/136/4 141/124/4
o CouchHolders_Cube.053
v 1.901629 -0.400510 -1.173533
v 1.901629 -0.290442 -1.173533
v 1.901629 -0.400510 -1.283601
v 1.901629 -0.290442 -1.283601
v 2.011697 -0.400510 -1.173533
v 2.011697 -0.290442 -1.173533
v 2.011697 -0.400510 -1.283601
v 2.011697 -0.290442 -1.283601
v -1.901629 -0.400510 -1.173533
v -1.901629 -0.290442 -1.173533
v -1.901629 -0.400510 -1.283601
v -1.901629 -0.290442 -1.283601
v -2.011697 -0.400510 -1.173533
v -2.011697 -0.290442 -1.173533
v -2.011697 -0.400510 -1.283601
v -2.011697 -0.290442 -1.283601
v 1.901629 -0.400510 0.919287
v 1.901629 -0.290442 0.919287
v 1.901629 -0.400510 0.809219
v 1.901629 -0.290442 0.809219
v 2.011697 -0.400510 0.919287
v 2.011697 -0.290442 0.919287
v 2.011697 -0.400510 0.809219
v 2.011697 -0.290442 0.809219
v -1.901629 -0.400510 0.919287
v -1.901629 -0.290442 0.919287
v -1.901629 -0.400510 0.809219
v -1.901629 -0.290442 0.809219
v -2.011697 -0.400510 0.919287
v -2.011697 -0.290442 0.919287
v -2.011697 -0.400510 0.809219
v -2.011697 -0.290442 0.809219
vt 0.375000 0.000000
vt 0.625000 0.000000
vt 0.625000 0.250000
vt 0.375000 0.250000
vt 0.625000 0.500000
vt 0.375000 0.500000
vt 0.625000 0.750000
vt 0.375000 0.750000
vt 0.625000 1.000000
vt 0.375000 1.000000
vt 0.125000 0.500000
vt 0.125000 0.750000
vt 0.875000 0.500000
vt 0.875000 0.750000
vt 0.375000 0.000000
vt 0.375000 0.250000
vt 0.625000 0.250000
vt 0.625000 0.000000
vt 0.375000 0.500000
vt 0.625000 0.500000
vt 0.375000 0.750000
vt 0.625000 0.750000
vt 0.375000 1.000000
vt 0.625000 1.000000
vt 0.125000 0.500000
vt 0.125000 0.750000
vt 0.875000 0.750000
vt 0.875000 0.500000
vt 0.375000 0.000000
vt 0.625000 0.000000
vt 0.625000 0.250000
vt 0.375000 0.250000
vt 0.625000 0.500000
vt 0.375000 0.500000
vt 0.625000 0.750000
vt 0.375000 0.750000
vt 0.625000 1.000000
vt 0.375000 1.000000
vt 0.125000 0.500000
vt 0.125000 0.750000
vt 0.875000 0.500000
vt 0.875000 0.750000
vt 0.375000 0.000000
vt 0.375000 0.250000
vt 0.625000 0.250000
vt 0.625000 0.000000
vt 0.375000 0.500000
vt 0.625000 0.500000
vt 0.375000 0.750000
vt 0.625000 0.750000
vt 0.375000 1.000000
vt 0.625000 1.000000
vt 0.125000 0.500000
vt 0.125000 0.750000
vt 0.875000 0.750000
vt 0.875000 0.500000
vn -1.0000 0.0000 0.0000
vn 0.0000 0.0000 -1.0000
vn 1.0000 0.0000 0.0000
vn 0.0000 0.0000 1.0000
vn 0.0000 -1.0000 0.0000
vn 0.0000 1.0000 0.0000
usemtl Brownish
s off
f 162/210/34 163/211/34 165/212/34 164/213/34
f 164/213/35 165/212/35 169/214/35 168/215/35
f 168/215/36 169/214/36 167/216/36 166/217/36
f 166/217/37 167/216/37 163/218/37 162/219/37
f 164/220/38 168/215/38 166/217/38 162/221/38
f 169/214/39 165/222/39 163/223/39 167/216/39
f 170/224/36 172/225/36 173/226/36 171/227/36
f 172/225/35 176/228/35 177/229/35 173/226/35
f 176/228/34 174/230/34 175/231/34 177/229/34
f 174/230/37 170/232/37 171/233/37 175/231/37
f 172/234/38 170/235/38 174/230/38 176/228/38
f 177/229/39 175/231/39 171/236/39 173/237/39
f 178/238/34 179/239/34 181/240/34 180/241/34
f 180/241/35 181/240/35 185/242/35 184/243/35
f 184/243/36 185/242/36 183/244/36 182/245/36
f 182/245/37 183/244/37 179/246/37 178/247/37
f 180/248/38 184/243/38 182/245/38 178/249/38
f 185/242/39 181/250/39 179/251/39 183/244/39
f 186/252/36 188/253/36 189/254/36 187/255/36
f 188/253/35 192/256/35 193/257/35 189/254/35
f 192/256/34 190/258/34 191/259/34 193/257/34
f 190/258/37 186/260/37 187/261/37 191/259/37
f 188/262/38 186/263/38 190/258/38 192/256/38
f 193/257/39 191/259/39 187/264/39 189/265/39
