# Blender v2.83.9 OBJ File: 'USBGame.blend'
# www.blender.org
mtllib Lamp.mtl
o Lamp_Cylinder.001
v 0.000000 -0.130137 -1.000000
v 0.000000 0.130137 -1.000000
v 0.707107 -0.130137 -0.707107
v 0.707107 0.130137 -0.707107
v 1.000000 -0.130137 0.000000
v 1.000000 0.130137 0.000000
v 0.707107 -0.130137 0.707107
v 0.707107 0.130137 0.707107
v -0.000000 -0.130137 1.000000
v -0.000000 0.130137 1.000000
v -0.707107 -0.130137 0.707107
v -0.707107 0.130137 0.707107
v -1.000000 -0.130137 -0.000000
v -1.000000 0.130137 -0.000000
v -0.707107 -0.130137 -0.707107
v -0.707107 0.130137 -0.707107
v 0.248125 0.276147 -0.248125
v -0.000000 0.276147 -0.350902
v 0.350902 0.276147 0.000000
v 0.248125 0.276147 0.248125
v -0.000000 0.276147 0.350902
v -0.248125 0.276147 0.248125
v -0.350902 0.276147 -0.000000
v -0.248125 0.276147 -0.248125
v 0.135680 0.421080 -0.135680
v -0.000000 0.421080 -0.191880
v 0.191880 0.421080 0.000000
v 0.135680 0.421080 0.135680
v -0.000000 0.421080 0.191880
v -0.135680 0.421080 0.135679
v -0.191880 0.421080 -0.000000
v -0.135680 0.421080 -0.135680
v 0.248125 0.421080 -0.248125
v -0.000000 0.421080 -0.350902
v 0.350902 0.421080 0.000000
v 0.248125 0.421080 0.248125
v -0.000000 0.421080 0.350902
v -0.248125 0.421080 0.248125
v -0.350902 0.421080 -0.000000
v -0.248125 0.421080 -0.248125
v 0.135680 3.086121 -0.135680
v 0.000000 3.086121 -0.191880
v 0.191880 3.086121 0.000000
v 0.135680 3.086121 0.135680
v 0.000000 3.086121 0.191880
v -0.135679 3.086121 0.135679
v -0.191880 3.086121 -0.000000
v -0.135679 3.086121 -0.135680
v 0.152198 3.190920 -0.152198
v 0.000000 3.190920 -0.215241
v 0.215241 3.190920 0.000000
v 0.152198 3.190920 0.152198
v 0.000000 3.190920 0.215241
v -0.152198 3.190920 0.152198
v -0.215241 3.190920 -0.000000
v -0.152198 3.190920 -0.152198
v 0.257039 3.190920 -0.257039
v 0.000000 3.190920 -0.363508
v 0.363508 3.190920 0.000000
v 0.257039 3.190920 0.257039
v 0.000000 3.190920 0.363508
v -0.257039 3.190920 0.257039
v -0.363508 3.190920 -0.000000
v -0.257039 3.190920 -0.257039
v 0.102302 3.557455 -0.102302
v 0.000000 3.557455 -0.144677
v 0.144677 3.557455 0.000000
v 0.102302 3.557455 0.102302
v 0.000000 3.557455 0.144677
v -0.102302 3.557455 0.102302
v -0.144677 3.557455 -0.000000
v -0.102302 3.557455 -0.102302
v 0.152199 3.557455 -0.152198
v 0.000000 3.557455 -0.215241
v 0.215241 3.557455 0.000000
v 0.152199 3.557455 0.152198
v 0.000000 3.557455 0.215241
v -0.152198 3.557455 0.152198
v -0.215241 3.557455 -0.000000
v -0.152198 3.557455 -0.152198
v 0.102302 3.631813 -0.102302
v 0.000000 3.631813 -0.144677
v 0.144677 3.631813 0.000000
v 0.102302 3.631813 0.102302
v 0.000000 3.631813 0.144677
v -0.102302 3.631813 0.102302
v -0.144677 3.631813 -0.000000
v -0.102302 3.631813 -0.102302
v 0.111369 3.641128 -0.111368
v 0.000000 3.641128 -0.157499
v 0.157499 3.641128 0.000000
v 0.111369 3.641128 0.111369
v 0.000000 3.641128 0.157499
v -0.111368 3.641128 0.111368
v -0.157499 3.641128 -0.000000
v -0.111368 3.641128 -0.111368
v 0.111369 3.668928 -0.111368
v 0.000000 3.668928 -0.157499
v 0.157499 3.668928 0.000000
v 0.111369 3.668928 0.111369
v 0.000000 3.668928 0.157499
v -0.111368 3.668928 0.111368
v -0.157499 3.668928 -0.000000
v -0.111368 3.668928 -0.111368
v 0.173710 3.825706 -0.173710
v 0.000000 3.825706 -0.245663
v 0.245664 3.825706 0.000000
v 0.173710 3.825706 0.173710
v 0.000000 3.825706 0.245663
v -0.173710 3.825706 0.173710
v -0.245663 3.825706 -0.000000
v -0.173710 3.825706 -0.173710
v 0.173710 4.017944 -0.173710
v 0.000000 4.017944 -0.245663
v 0.245664 4.017944 0.000000
v 0.173710 4.017944 0.173710
v 0.000000 4.017944 0.245663
v -0.173710 4.017944 0.173710
v -0.245663 4.017944 -0.000000
v -0.173710 4.017944 -0.173710
v 0.074142 4.208135 -0.074142
v 0.000000 4.208135 -0.104853
v 0.104853 4.208135 0.000000
v 0.074142 4.208135 0.074142
v 0.000000 4.208135 0.104853
v -0.074142 4.208135 0.074142
v -0.104853 4.208135 -0.000000
v -0.074142 4.208135 -0.074142
v 0.257039 3.421747 -0.257039
v 0.000000 3.421747 -0.363508
v 0.000000 3.421747 0.363508
v 0.257039 3.421747 0.257039
v -0.257039 3.421747 0.257039
v -0.257039 3.421747 -0.257039
v 0.152198 3.421747 -0.152198
v 0.000000 3.421747 -0.215241
v 0.000000 3.421747 0.215241
v 0.152198 3.421747 0.152198
v -0.152198 3.421747 0.152198
v -0.152198 3.421747 -0.152198
v 0.363508 3.346020 0.000000
v 0.257039 3.346020 -0.257039
v 0.257039 3.346020 0.257039
v -0.363508 3.346020 -0.000000
v -0.257039 3.346020 0.257039
v -0.257039 3.346020 -0.257039
v 0.215241 3.346020 0.000000
v 0.152198 3.346020 -0.152198
v 0.152198 3.346020 0.152198
v -0.215241 3.346020 -0.000000
v -0.152198 3.346020 0.152198
v -0.152198 3.346020 -0.152198
vt 1.000000 0.500000
vt 1.000000 1.000000
vt 0.875000 1.000000
vt 0.875000 0.500000
vt 0.750000 1.000000
vt 0.750000 0.500000
vt 0.625000 1.000000
vt 0.625000 0.500000
vt 0.500000 1.000000
vt 0.500000 0.500000
vt 0.375000 1.000000
vt 0.375000 0.500000
vt 0.250000 1.000000
vt 0.250000 0.500000
vt 0.625000 1.000000
vt 0.500000 1.000000
vt 0.125000 1.000000
vt 0.125000 0.500000
vt 0.000000 1.000000
vt 0.000000 0.500000
vt 0.750000 0.490000
vt 0.919706 0.419706
vt 0.990000 0.250000
vt 0.919706 0.080294
vt 0.750000 0.010000
vt 0.580294 0.080294
vt 0.510000 0.250000
vt 0.580294 0.419706
vt 0.750000 1.000000
vt 0.750000 1.000000
vt 0.625000 1.000000
vt 0.250000 1.000000
vt 0.125000 1.000000
vt 0.875000 1.000000
vt 0.375000 1.000000
vt 0.000000 1.000000
vt 1.000000 1.000000
vt 0.250000 0.118764
vt 0.342798 0.157202
vt 0.342798 0.157202
vt 0.250000 0.118764
vt 1.000000 1.000000
vt 0.875000 1.000000
vt 0.125000 1.000000
vt 0.000000 1.000000
vt 0.375000 1.000000
vt 0.250000 1.000000
vt 0.500000 1.000000
vt 0.250000 0.381236
vt 0.342798 0.342798
vt 0.419706 0.419706
vt 0.250000 0.490000
vt 0.381236 0.250000
vt 0.490000 0.250000
vt 0.419706 0.080294
vt 0.250000 0.010000
vt 0.157202 0.157202
vt 0.080294 0.080294
vt 0.118764 0.250000
vt 0.010000 0.250000
vt 0.157202 0.342798
vt 0.080294 0.419706
vt 0.250000 0.381236
vt 0.157202 0.342798
vt 0.157202 0.342798
vt 0.250000 0.381236
vt 0.342798 0.342798
vt 0.381236 0.250000
vt 0.118764 0.250000
vt 0.157202 0.157202
vt 0.195052 0.304948
vt 0.172292 0.250000
vt 0.172292 0.250000
vt 0.195052 0.304948
vt 0.157202 0.157202
vt 0.118764 0.250000
vt 0.342798 0.157202
vt 0.250000 0.118764
vt 0.342798 0.342798
vt 0.381236 0.250000
vt 0.195052 0.195052
vt 0.157202 0.157202
vt 0.195052 0.195052
vt 0.304948 0.195052
vt 0.342798 0.157202
vt 0.304948 0.195052
vt 0.118764 0.250000
vt 0.157202 0.342798
vt 0.304948 0.304948
vt 0.342798 0.342798
vt 0.304948 0.304948
vt 0.250000 0.118764
vt 0.381236 0.250000
vt 0.195052 0.195052
vt 0.157202 0.157202
vt 0.195052 0.304948
vt 0.157202 0.342798
vt 0.250000 0.172292
vt 0.250000 0.172292
vt 0.195052 0.195052
vt 0.327708 0.250000
vt 0.327708 0.250000
vt 0.304948 0.195052
vt 0.250000 0.327708
vt 0.250000 0.327708
vt 0.304948 0.304948
vt 0.250000 0.302232
vt 0.286934 0.286934
vt 0.302232 0.250000
vt 0.286934 0.213066
vt 0.250000 0.197768
vt 0.213066 0.213066
vt 0.197768 0.250000
vt 0.213066 0.286934
vt 0.250000 0.327708
vt 0.250000 0.381236
vt 0.304948 0.195052
vt 0.250000 0.172292
vt 0.342798 0.157202
vt 0.304948 0.304948
vt 0.327708 0.250000
vt 0.342798 0.342798
vt 0.172292 0.250000
vt 0.195052 0.304948
vt 0.250000 0.302232
vt 0.213066 0.286934
vt 0.213066 0.286934
vt 0.250000 0.302232
vt 0.286934 0.213066
vt 0.302232 0.250000
vt 0.302232 0.250000
vt 0.286934 0.213066
vt 0.197768 0.250000
vt 0.213066 0.213066
vt 0.213066 0.213066
vt 0.197768 0.250000
vt 0.250000 0.197768
vt 0.286934 0.213066
vt 0.250000 0.197768
vt 0.302232 0.250000
vt 0.286934 0.286934
vt 0.286934 0.286934
vt 0.213066 0.286934
vt 0.197768 0.250000
vt 0.197768 0.250000
vt 0.213066 0.286934
vt 0.250000 0.302232
vt 0.286934 0.286934
vt 0.213066 0.213066
vt 0.250000 0.197768
vt 0.286934 0.286934
vt 0.250000 0.302232
vt 0.213066 0.213066
vt 0.250000 0.197768
vt 0.286934 0.213066
vt 0.302232 0.250000
vt 0.250000 0.302232
vt 0.286934 0.286934
vt 0.213066 0.286934
vt 0.197768 0.250000
vt 0.197768 0.250000
vt 0.213066 0.286934
vt 0.213066 0.213066
vt 0.286934 0.213066
vt 0.250000 0.197768
vt 0.302232 0.250000
vt 0.302232 0.250000
vt 0.286934 0.286934
vt 0.250000 0.197768
vt 0.213066 0.213066
vt 0.286934 0.213066
vt 0.250000 0.302232
vn 0.3827 0.0000 -0.9239
vn 0.9239 0.0000 -0.3827
vn 0.9239 0.0000 0.3827
vn 0.3827 0.0000 0.9239
vn -0.3827 0.0000 0.9239
vn -0.9239 0.0000 0.3827
vn 0.0905 0.9716 0.2186
vn -0.9239 0.0000 -0.3827
vn -0.3827 0.0000 -0.9239
vn 0.0000 -1.0000 0.0000
vn -0.2186 0.9716 -0.0905
vn 0.2186 0.9716 -0.0905
vn -0.0905 0.9716 0.2186
vn -0.0905 0.9716 -0.2186
vn 0.0905 0.9716 -0.2186
vn 0.2186 0.9716 0.0905
vn -0.2186 0.9716 0.0905
vn 0.0000 1.0000 0.0000
vn -0.2110 -0.8343 -0.5094
vn -0.5094 -0.8343 0.2110
vn 0.2110 -0.8343 0.5094
vn 0.5094 -0.8343 -0.2110
vn -0.5094 -0.8343 -0.2110
vn -0.2110 -0.8343 0.5094
vn 0.5094 -0.8343 0.2110
vn 0.2110 -0.8343 -0.5094
vn -0.7071 0.0000 -0.7071
vn -0.7071 0.0000 0.7071
vn 0.7071 0.0000 0.7071
vn 0.7071 0.0000 -0.7071
vn -0.3396 -0.4610 -0.8198
vn -0.8198 -0.4610 0.3396
vn 0.3396 -0.4610 0.8198
vn 0.8198 -0.4610 -0.3396
vn -0.8198 -0.4610 -0.3396
vn -0.3396 -0.4610 0.8198
vn 0.8198 -0.4610 0.3396
vn 0.3396 -0.4610 -0.8198
vn -0.7626 0.5646 -0.3159
vn -0.3159 0.5646 0.7626
vn 0.7626 0.5646 0.3159
vn 0.3159 0.5646 -0.7626
vn -0.3159 0.5646 -0.7626
vn -0.7626 0.5646 0.3159
vn 0.3159 0.5646 0.7626
vn 0.7626 0.5646 -0.3159
vn -0.5711 -0.7861 -0.2365
vn -0.2365 -0.7861 0.5711
vn 0.5711 -0.7861 0.2365
vn 0.2365 -0.7861 -0.5711
vn -0.2365 -0.7861 -0.5711
vn -0.5711 -0.7861 0.2365
vn 0.2365 -0.7861 0.5711
vn 0.5711 -0.7861 -0.2365
usemtl NeutralGray.001
s off
f 1/1/1 2/2/1 4/3/1 3/4/1
f 3/4/2 4/3/2 6/5/2 5/6/2
f 5/6/3 6/5/3 8/7/3 7/8/3
f 7/8/4 8/7/4 10/9/4 9/10/4
f 9/10/5 10/9/5 12/11/5 11/12/5
f 11/12/6 12/11/6 14/13/6 13/14/6
f 10/9/7 8/7/7 20/15/7 21/16/7
f 13/14/8 14/13/8 16/17/8 15/18/8
f 15/18/9 16/17/9 2/19/9 1/20/9
f 1/21/10 3/22/10 5/23/10 7/24/10 9/25/10 11/26/10 13/27/10 15/28/10
f 20/15/3 19/29/3 35/30/3 36/31/3
f 16/17/11 14/13/11 23/32/11 24/33/11
f 6/5/12 4/3/12 17/34/12 19/29/12
f 12/11/13 10/9/13 21/16/13 22/35/13
f 2/19/14 16/17/14 24/33/14 18/36/14
f 4/3/15 2/2/15 18/37/15 17/34/15
f 8/7/16 6/5/16 19/29/16 20/15/16
f 14/13/17 12/11/17 22/35/17 23/32/17
f 29/38/4 28/39/4 44/40/4 45/41/4
f 17/34/1 18/37/1 34/42/1 33/43/1
f 18/36/9 24/33/9 40/44/9 34/45/9
f 23/32/6 22/35/6 38/46/6 39/47/6
f 21/16/4 20/15/4 36/31/4 37/48/4
f 19/29/2 17/34/2 33/43/2 35/30/2
f 24/33/8 23/32/8 39/47/8 40/44/8
f 22/35/5 21/16/5 37/48/5 38/46/5
f 26/49/18 25/50/18 33/51/18 34/52/18
f 25/50/18 27/53/18 35/54/18 33/51/18
f 27/53/18 28/39/18 36/55/18 35/54/18
f 28/39/18 29/38/18 37/56/18 36/55/18
f 29/38/18 30/57/18 38/58/18 37/56/18
f 30/57/18 31/59/18 39/60/18 38/58/18
f 31/59/18 32/61/18 40/62/18 39/60/18
f 32/61/18 26/49/18 34/52/18 40/62/18
f 42/63/19 48/64/19 64/65/19 58/66/19
f 27/53/2 25/50/2 41/67/2 43/68/2
f 32/61/8 31/59/8 47/69/8 48/64/8
f 30/57/5 29/38/5 45/41/5 46/70/5
f 28/39/3 27/53/3 43/68/3 44/40/3
f 25/50/1 26/49/1 42/63/1 41/67/1
f 26/49/9 32/61/9 48/64/9 42/63/9
f 31/59/6 30/57/6 46/70/6 47/69/6
f 56/71/8 55/72/8 79/73/8 80/74/8
f 47/69/20 46/70/20 62/75/20 63/76/20
f 45/41/21 44/40/21 60/77/21 61/78/21
f 43/68/22 41/67/22 57/79/22 59/80/22
f 48/64/23 47/69/23 63/76/23 64/65/23
f 46/70/24 45/41/24 61/78/24 62/75/24
f 44/40/25 43/68/25 59/80/25 60/77/25
f 41/67/26 42/63/26 58/66/26 57/79/26
f 54/81/27 62/75/27 133/82/27 139/83/27
f 52/84/28 60/77/28 143/85/28 149/86/28
f 64/65/8 63/76/8 144/87/8 146/88/8
f 49/89/29 57/79/29 129/90/29 135/91/29
f 62/75/5 61/78/5 131/92/5 133/82/5
f 60/77/3 59/80/3 141/93/3 143/85/3
f 62/75/29 54/81/29 151/94/29 145/95/29
f 64/65/28 56/71/28 140/96/28 134/97/28
f 54/81/5 53/98/5 77/99/5 78/100/5
f 52/84/3 51/101/3 75/102/3 76/103/3
f 49/89/1 50/104/1 74/105/1 73/106/1
f 50/104/9 56/71/9 80/74/9 74/105/9
f 55/72/6 54/81/6 78/100/6 79/73/6
f 53/98/4 52/84/4 76/103/4 77/99/4
f 51/101/2 49/89/2 73/106/2 75/102/2
f 66/107/18 65/108/18 73/106/18 74/105/18
f 65/108/18 67/109/18 75/102/18 73/106/18
f 67/109/18 68/110/18 76/103/18 75/102/18
f 68/110/18 69/111/18 77/99/18 76/103/18
f 69/111/18 70/112/18 78/100/18 77/99/18
f 70/112/18 71/113/18 79/73/18 78/100/18
f 71/113/18 72/114/18 80/74/18 79/73/18
f 72/114/18 66/107/18 74/105/18 80/74/18
f 136/115/18 135/91/18 129/90/18 130/116/18
f 138/117/18 137/118/18 131/92/18 132/119/18
f 137/118/18 139/83/18 133/82/18 131/92/18
f 140/96/18 136/115/18 130/116/18 134/97/18
f 52/84/9 53/98/9 137/118/9 138/117/9
f 50/104/5 49/89/5 135/91/5 136/115/5
f 56/71/4 50/104/4 136/115/4 140/96/4
f 61/78/4 60/77/4 132/119/4 131/92/4
f 53/98/1 54/81/1 139/83/1 137/118/1
f 60/77/30 52/84/30 138/117/30 132/119/30
f 57/79/1 58/66/1 130/116/1 129/90/1
f 58/66/9 64/65/9 134/97/9 130/116/9
f 148/120/18 147/121/18 141/93/18 142/122/18
f 147/121/18 149/86/18 143/85/18 141/93/18
f 151/94/18 150/123/18 144/87/18 145/95/18
f 150/123/18 152/124/18 146/88/18 144/87/18
f 49/89/6 51/101/6 147/121/6 148/120/6
f 56/71/30 64/65/30 146/88/30 152/124/30
f 54/81/2 55/72/2 150/123/2 151/94/2
f 59/80/2 57/79/2 142/122/2 141/93/2
f 51/101/8 52/84/8 149/86/8 147/121/8
f 57/79/27 49/89/27 148/120/27 142/122/27
f 63/76/6 62/75/6 145/95/6 144/87/6
f 55/72/3 56/71/3 152/124/3 150/123/3
usemtl Emission
f 98/125/31 104/126/31 112/127/31 106/128/31
f 108/129/3 107/130/3 115/131/3 116/132/3
f 103/133/32 102/134/32 110/135/32 111/136/32
f 101/137/33 100/138/33 108/129/33 109/139/33
f 99/140/34 97/141/34 105/142/34 107/130/34
f 104/126/35 103/133/35 111/136/35 112/127/35
f 102/134/36 101/137/36 109/139/36 110/135/36
f 100/138/37 99/140/37 107/130/37 108/129/37
f 97/141/38 98/125/38 106/128/38 105/142/38
f 120/143/39 119/144/39 127/145/39 128/146/39
f 105/142/1 106/128/1 114/147/1 113/148/1
f 106/128/9 112/127/9 120/143/9 114/147/9
f 111/136/6 110/135/6 118/149/6 119/144/6
f 109/139/4 108/129/4 116/132/4 117/150/4
f 107/130/2 105/142/2 113/148/2 115/131/2
f 112/127/8 111/136/8 119/144/8 120/143/8
f 110/135/5 109/139/5 117/150/5 118/149/5
f 121/151/18 122/152/18 128/146/18 127/145/18 126/153/18 125/154/18 124/155/18 123/156/18
f 118/149/40 117/150/40 125/154/40 126/153/40
f 116/132/41 115/131/41 123/156/41 124/155/41
f 113/148/42 114/147/42 122/152/42 121/151/42
f 114/147/43 120/143/43 128/146/43 122/152/43
f 119/144/44 118/149/44 126/153/44 127/145/44
f 117/150/45 116/132/45 124/155/45 125/154/45
f 115/131/46 113/148/46 121/151/46 123/156/46
usemtl Brownish
f 65/108/1 66/107/1 82/157/1 81/158/1
f 88/159/47 87/160/47 95/161/47 96/162/47
f 66/107/9 72/114/9 88/159/9 82/157/9
f 71/113/6 70/112/6 86/163/6 87/160/6
f 69/111/4 68/110/4 84/164/4 85/165/4
f 67/109/2 65/108/2 81/158/2 83/166/2
f 72/114/8 71/113/8 87/160/8 88/159/8
f 70/112/5 69/111/5 85/165/5 86/163/5
f 68/110/3 67/109/3 83/166/3 84/164/3
f 91/167/2 89/168/2 97/141/2 99/140/2
f 86/163/48 85/165/48 93/169/48 94/170/48
f 84/164/49 83/166/49 91/167/49 92/171/49
f 81/158/50 82/157/50 90/172/50 89/168/50
f 82/157/51 88/159/51 96/162/51 90/172/51
f 87/160/52 86/163/52 94/170/52 95/161/52
f 85/165/53 84/164/53 92/171/53 93/169/53
f 83/166/54 81/158/54 89/168/54 91/167/54
f 96/162/8 95/161/8 103/133/8 104/126/8
f 94/170/5 93/169/5 101/137/5 102/134/5
f 92/171/3 91/167/3 99/140/3 100/138/3
f 89/168/1 90/172/1 98/125/1 97/141/1
f 90/172/9 96/162/9 104/126/9 98/125/9
f 95/161/6 94/170/6 102/134/6 103/133/6
f 93/169/4 92/171/4 100/138/4 101/137/4
o Lampshade_Cylinder.002
v 0.000000 2.467451 -1.086251
v 0.000000 4.647887 -0.775498
v 0.768095 2.467451 -0.768095
v 0.548360 4.647887 -0.548360
v 1.086251 2.467451 0.000000
v 0.775498 4.647887 0.000000
v 0.768095 2.467451 0.768095
v 0.548360 4.647887 0.548360
v -0.000000 2.467451 1.086251
v -0.000000 4.647887 0.775498
v -0.768095 2.467451 0.768095
v -0.548360 4.647887 0.548360
v -1.086251 2.467451 -0.000000
v -0.775498 4.647887 -0.000000
v -0.768095 2.467451 -0.768095
v -0.548360 4.647887 -0.548360
v 0.000000 2.467451 -1.192052
v 0.842908 2.467451 -0.842908
v 0.601771 4.647887 -0.601771
v 0.000000 4.647887 -0.851032
v 1.192052 2.467451 0.000000
v 0.851032 4.647887 0.000000
v 0.842908 2.467451 0.842908
v 0.601771 4.647887 0.601771
v -0.000000 2.467451 1.192052
v -0.000000 4.647887 0.851032
v -0.842908 2.467451 0.842908
v -0.601771 4.647887 0.601770
v -1.192052 2.467451 -0.000000
v -0.851032 4.647887 -0.000000
v -0.842908 2.467451 -0.842908
v -0.601771 4.647887 -0.601771
v -0.561939 2.467451 -0.959289
v -0.280969 2.467451 -1.075671
v -0.200590 4.647887 -0.767945
v -0.401180 4.647887 -0.684858
v -0.512064 2.467451 -0.874147
v -0.256032 2.467451 -0.980199
v -0.182787 4.647887 -0.699786
v -0.365573 4.647887 -0.624073
v -0.280969 2.467451 1.075670
v -0.561939 2.467451 0.959289
v -0.401180 4.647887 0.684858
v -0.200590 4.647887 0.767945
v -0.256032 2.467451 0.980199
v -0.512064 2.467451 0.874147
v -0.365573 4.647887 0.624073
v -0.182787 4.647887 0.699786
v 1.075671 2.467451 0.280969
v 0.959289 2.467451 0.561939
v 0.684858 4.647887 0.401180
v 0.767945 4.647887 0.200590
v 0.980199 2.467451 0.256032
v 0.874147 2.467451 0.512064
v 0.624073 4.647887 0.365573
v 0.699786 4.647887 0.182787
v -0.046137 3.387515 -0.160491
v -0.077265 3.387515 -0.147598
v -0.022227 3.387515 0.202917
v 0.008901 3.387515 0.215811
v 0.146307 3.387515 0.158896
v 0.159201 3.387515 0.127767
vt 1.000000 0.500000
vt 1.000000 1.000000
vt 0.875000 1.000000
vt 0.875000 0.500000
vt 0.750000 1.000000
vt 0.750000 0.500000
vt 0.666667 0.500000
vt 0.666667 1.000000
vt 0.625000 1.000000
vt 0.625000 0.500000
vt 0.500000 1.000000
vt 0.500000 0.500000
vt 0.416667 0.500000
vt 0.416667 1.000000
vt 0.375000 1.000000
vt 0.375000 0.500000
vt 0.250000 1.000000
vt 0.250000 0.500000
vt 0.125000 1.000000
vt 0.125000 0.500000
vt 0.041667 0.500000
vt 0.041667 1.000000
vt 0.000000 1.000000
vt 0.000000 0.500000
vt 0.904643 0.404643
vt 0.750000 0.468699
vt 0.750000 0.490000
vt 0.919706 0.419706
vt 0.250000 0.468699
vt 0.404643 0.404643
vt 0.419706 0.419706
vt 0.250000 0.490000
vt 0.968699 0.250000
vt 0.990000 0.250000
vt 0.468699 0.250000
vt 0.490000 0.250000
vt 0.947347 0.198452
vt 0.966569 0.193431
vt 0.425995 0.146904
vt 0.404643 0.095357
vt 0.419706 0.080294
vt 0.443137 0.136863
vt 0.750000 0.031301
vt 0.904643 0.095357
vt 0.919706 0.080294
vt 0.750000 0.010000
vt 0.250000 0.031301
vt 0.250000 0.010000
vt 0.698452 0.052653
vt 0.693431 0.033431
vt 0.146904 0.074005
vt 0.095357 0.095357
vt 0.080294 0.080294
vt 0.136863 0.056863
vt 0.531301 0.250000
vt 0.595357 0.095357
vt 0.580294 0.080294
vt 0.510000 0.250000
vt 0.031301 0.250000
vt 0.010000 0.250000
vt 0.595357 0.404643
vt 0.580294 0.419706
vt 0.095357 0.404643
vt 0.080294 0.419706
vt 0.646904 0.425995
vt 0.636863 0.443137
vt 0.198452 0.447347
vt 0.193431 0.466568
vt 0.146904 0.425995
vt 0.136863 0.443137
vt 0.698452 0.447347
vt 0.693431 0.466568
vt 0.083333 1.000000
vt 0.083333 0.500000
vt 0.198452 0.052653
vt 0.193431 0.033431
vt 0.646904 0.074005
vt 0.636863 0.056863
vt 0.458333 1.000000
vt 0.458333 0.500000
vt 0.447347 0.198452
vt 0.466568 0.193431
vt 0.925995 0.146904
vt 0.943137 0.136863
vt 0.708333 1.000000
vt 0.708333 0.500000
vt 0.447347 0.198452
vt 0.425995 0.146904
vt 0.198452 0.052653
vt 0.146904 0.074005
vt 0.146904 0.425995
vt 0.198452 0.447347
vn 0.3787 0.1430 -0.9144
vn 0.9144 0.1430 -0.3787
vn 0.9144 0.1430 0.3788
vn 0.3787 0.1430 0.9144
vn -0.3787 0.1430 0.9144
vn -0.9144 0.1430 0.3787
vn -0.9144 0.1430 -0.3787
vn -0.3787 0.1430 -0.9144
vn 0.0000 -1.0000 0.0000
vn 0.0000 1.0000 0.0000
vn -0.3788 0.1430 -0.9144
vn -0.3788 0.1430 0.9144
vn 0.9144 0.1430 0.3787
vn -0.8539 0.3817 -0.3537
vn 0.3537 0.3817 -0.8539
vn 0.3507 0.4003 0.8466
usemtl AshRose
s off
f 169/173/55 172/174/55 171/175/55 170/176/55
f 170/176/56 171/175/56 174/177/56 173/178/56
f 202/179/57 203/180/57 176/181/57 175/182/57
f 175/182/58 176/181/58 178/183/58 177/184/58
f 194/185/59 195/186/59 180/187/59 179/188/59
f 179/188/60 180/187/60 182/189/60 181/190/60
f 181/190/61 182/189/61 184/191/61 183/192/61
f 186/193/62 187/194/62 172/195/62 169/196/62
f 155/197/63 153/198/63 169/199/63 170/200/63
f 154/201/64 156/202/64 171/203/64 172/204/64
f 157/205/63 155/197/63 170/200/63 173/206/63
f 156/202/64 158/207/64 174/208/64 171/203/64
f 205/209/63 157/205/63 173/206/63 201/210/63
f 207/211/64 160/212/64 176/213/64 203/214/64
f 161/215/63 159/216/63 175/217/63 177/218/63
f 160/212/64 162/219/64 178/220/64 176/213/64
f 197/221/63 161/215/63 177/218/63 193/222/63
f 199/223/64 164/224/64 180/225/64 195/226/64
f 165/227/63 163/228/63 179/229/63 181/230/63
f 164/224/64 166/231/64 182/232/64 180/225/64
f 167/233/63 165/227/63 181/230/63 183/234/63
f 166/231/64 168/235/64 184/236/64 182/232/64
f 189/237/63 167/233/63 183/234/63 185/238/63
f 191/239/64 154/201/64 172/204/64 187/240/64
f 168/235/64 192/241/64 188/242/64 184/236/64
f 192/241/64 191/239/64 187/240/64 188/242/64
f 153/198/63 190/243/63 186/244/63 169/199/63
f 190/243/63 189/237/63 185/238/63 186/244/63
f 183/192/62 184/191/62 188/245/62 185/246/62
f 185/246/65 188/245/65 187/194/65 186/193/65
f 162/219/64 200/247/64 196/248/64 178/220/64
f 200/247/64 199/223/64 195/226/64 196/248/64
f 163/228/63 198/249/63 194/250/63 179/229/63
f 198/249/63 197/221/63 193/222/63 194/250/63
f 177/184/66 178/183/66 196/251/66 193/252/66
f 193/252/66 196/251/66 195/186/66 194/185/66
f 158/207/64 208/253/64 204/254/64 174/208/64
f 208/253/64 207/211/64 203/214/64 204/254/64
f 159/216/63 206/255/63 202/256/63 175/217/63
f 206/255/63 205/209/63 201/210/63 202/256/63
f 173/178/67 174/177/67 204/257/67 201/258/67
f 201/258/67 204/257/67 203/180/67 202/179/67
f 207/211/68 208/253/68 214/259/68 213/260/68
f 199/223/69 200/247/69 212/261/69 211/262/69
f 191/239/70 192/241/70 210/263/70 209/264/70
