# Blender v2.83.9 OBJ File: 'USBGame.blend'
# www.blender.org
mtllib Mouse.mtl
o Mouse_Cube.031
v 1.000000 -0.567809 1.825119
v 1.000000 0.279486 1.777737
v 1.000000 -0.567809 -1.929665
v 1.000000 0.303669 -2.175164
v 1.108040 0.000000 -2.175164
v 1.000000 -0.567809 0.000000
v 1.000000 0.567809 -0.881416
v 1.085979 0.000000 1.929665
v 1.211242 0.000000 0.000000
v -1.000000 -0.567809 1.825119
v -1.000000 0.279486 1.777737
v -1.000000 -0.567809 -1.929665
v -1.000000 0.303669 -2.175164
v 0.000000 -0.567809 -1.929665
v 0.000000 0.542506 -2.285040
v -1.108040 0.000000 -2.175164
v -1.000000 -0.567809 0.000000
v -1.000000 0.567809 -0.881416
v -1.085979 0.000000 1.929665
v 0.000000 -0.567809 1.825119
v 0.000000 0.518323 1.777737
v 0.000000 0.806646 -0.881416
v 0.000000 -0.567809 0.000000
v 0.000000 0.000000 1.929665
v -1.211242 0.000000 0.000000
v 0.000000 0.000000 -2.260675
vt 0.500000 0.375000
vt 0.625000 0.375000
vt 0.625000 0.500000
vt 0.500000 0.500000
vt 0.500000 0.625000
vt 0.625000 0.625000
vt 0.625000 0.750000
vt 0.500000 0.750000
vt 0.750000 0.625000
vt 0.750000 0.750000
vt 0.750000 0.500000
vt 0.625000 0.875000
vt 0.500000 0.875000
vt 0.500000 0.500000
vt 0.625000 0.500000
vt 0.500000 0.625000
vt 0.500000 0.750000
vt 0.625000 0.750000
vt 0.625000 0.625000
vt 0.250000 0.625000
vt 0.375000 0.625000
vt 0.375000 0.750000
vt 0.250000 0.750000
vt 0.250000 0.500000
vt 0.375000 0.500000
vt 0.375000 0.875000
vt 0.375000 0.375000
vt 0.375000 0.750000
vt 0.375000 0.625000
vt 0.375000 0.500000
vn 0.0904 -0.0171 -0.9958
vn 0.9222 0.3836 0.0493
vn 0.2310 0.9673 0.1049
vn 0.2379 0.9532 -0.1867
vn 0.0412 0.3595 0.9322
vn 0.9533 0.2977 -0.0510
vn -0.0904 -0.0171 -0.9958
vn -0.9222 0.3836 0.0493
vn -0.2310 0.9673 0.1049
vn -0.2379 0.9532 -0.1867
vn -0.0412 0.3595 0.9322
vn -0.9533 0.2977 -0.0510
vn 0.0000 -1.0000 0.0000
vn 0.0000 -0.1811 0.9835
vn 0.9662 -0.2558 0.0322
vn 0.9610 -0.2754 -0.0242
vn 0.0361 -0.4551 -0.8897
vn -0.9662 -0.2558 0.0322
vn -0.9610 -0.2754 -0.0242
vn -0.0361 -0.4551 -0.8897
usemtl AshRose
s off
f 26/1/1 15/2/1 4/3/1 5/4/1
f 9/5/2 7/6/2 2/7/2 8/8/2
f 7/6/3 22/9/3 21/10/3 2/7/3
f 4/3/4 15/11/4 22/9/4 7/6/4
f 8/8/5 2/7/5 21/12/5 24/13/5
f 5/4/6 4/3/6 7/6/6 9/5/6
f 26/1/7 16/14/7 13/15/7 15/2/7
f 25/16/8 19/17/8 11/18/8 18/19/8
f 18/19/9 11/18/9 21/10/9 22/9/9
f 13/15/10 18/19/10 22/9/10 15/11/10
f 19/17/11 24/13/11 21/12/11 11/18/11
f 16/14/12 25/16/12 18/19/12 13/15/12
usemtl Slate
f 23/20/13 6/21/13 1/22/13 20/23/13
f 14/24/13 3/25/13 6/21/13 23/20/13
f 1/22/14 8/8/14 24/13/14 20/26/14
f 6/21/15 9/5/15 8/8/15 1/22/15
f 3/25/16 5/4/16 9/5/16 6/21/16
f 14/27/17 26/1/17 5/4/17 3/25/17
f 23/20/13 20/23/13 10/28/13 17/29/13
f 14/24/13 23/20/13 17/29/13 12/30/13
f 10/28/14 20/26/14 24/13/14 19/17/14
f 17/29/18 10/28/18 19/17/18 25/16/18
f 12/30/19 17/29/19 25/16/19 16/14/19
f 14/27/20 12/30/20 16/14/20 26/1/20
o Mousebutton_Cube.032
v -0.092019 0.542527 -1.294114
v -0.092019 0.804289 -1.294114
v -0.092019 0.542527 -1.857913
v -0.092019 0.804289 -1.857913
v 0.092019 0.542527 -1.294114
v 0.092019 0.804289 -1.294114
v 0.092019 0.542527 -1.857913
v 0.092019 0.804289 -1.857913
v -0.092019 0.754635 -1.294114
v -0.092019 0.754635 -1.857913
v 0.092019 0.754635 -1.857913
v 0.092019 0.754635 -1.294114
v 0.092019 0.754635 -0.989466
v 0.092019 0.542527 -0.989466
v -0.092019 0.542527 -0.989466
v -0.092019 0.754635 -0.989466
vt 0.577577 0.000000
vt 0.625000 0.000000
vt 0.625000 0.250000
vt 0.577577 0.250000
vt 0.625000 0.500000
vt 0.577577 0.500000
vt 0.625000 0.750000
vt 0.577577 0.750000
vt 0.625000 1.000000
vt 0.577577 1.000000
vt 0.125000 0.500000
vt 0.375000 0.500000
vt 0.375000 0.750000
vt 0.125000 0.750000
vt 0.875000 0.500000
vt 0.875000 0.750000
vt 0.577577 0.750000
vt 0.375000 0.750000
vt 0.375000 0.250000
vt 0.375000 0.000000
vt 0.577577 1.000000
vt 0.375000 1.000000
vt 0.375000 0.000000
vt 0.577577 0.000000
vt 0.125000 0.750000
vn -1.0000 0.0000 0.0000
vn 0.0000 0.0000 -1.0000
vn 1.0000 0.0000 0.0000
vn 0.0000 0.0000 1.0000
vn 0.0000 -1.0000 0.0000
vn 0.0000 1.0000 0.0000
usemtl HeliotropeGray
s off
f 35/31/21 28/32/21 30/33/21 36/34/21
f 36/34/22 30/33/22 34/35/22 37/36/22
f 37/36/23 34/35/23 32/37/23 38/38/23
f 38/38/24 32/37/24 28/39/24 35/40/24
f 29/41/25 33/42/25 31/43/25 27/44/25
f 34/35/26 30/45/26 28/46/26 32/37/26
f 31/43/23 38/38/23 39/47/23 40/48/23
f 33/42/23 37/36/23 38/38/23 31/43/23
f 29/49/22 36/34/22 37/36/22 33/42/22
f 27/50/21 35/31/21 36/34/21 29/49/21
f 40/48/24 39/47/24 42/51/24 41/52/24
f 38/38/26 35/40/26 42/51/26 39/47/26
f 35/31/21 27/50/21 41/53/21 42/54/21
f 27/44/25 31/43/25 40/48/25 41/55/25
