# Blender v2.83.9 OBJ File: 'USBGame.blend'
# www.blender.org
mtllib Outlet.mtl
o Outlet_Cube.037
v -0.065727 -0.137753 -2.240292
v -0.065727 0.137753 -2.240292
v -0.108493 -0.194369 -2.266345
v -0.108493 0.194369 -2.266345
v 0.065727 -0.137753 -2.240292
v 0.065727 0.137753 -2.240292
v 0.108493 -0.194369 -2.266345
v 0.108493 0.194369 -2.266345
v -0.065727 0.038311 -2.240292
v -0.108493 0.000000 -2.266345
v 0.108493 0.000000 -2.266345
v 0.065727 0.038311 -2.240292
v -0.065727 -0.038311 -2.240292
v -0.098275 0.176063 -2.240292
v 0.098275 0.176063 -2.240292
v 0.065727 -0.038311 -2.240292
v 0.098275 0.000000 -2.240292
v 0.098275 -0.176063 -2.240292
v -0.098275 -0.176063 -2.240292
v -0.098275 0.000000 -2.240292
v -0.065727 0.038311 -2.230653
v -0.065727 0.137753 -2.230653
v 0.065727 0.137753 -2.230653
v 0.065727 0.038311 -2.230653
v 0.065727 -0.038311 -2.230653
v 0.065727 -0.137753 -2.230653
v -0.065727 -0.137753 -2.230653
v -0.065727 -0.038311 -2.230653
v 0.065096 -0.194369 -2.266345
v 0.021699 -0.194369 -2.266345
v -0.021699 -0.194369 -2.266345
v -0.065096 -0.194369 -2.266345
v -0.065096 0.194369 -2.266345
v -0.021699 0.194369 -2.266345
v 0.021699 0.194369 -2.266345
v 0.065096 0.194369 -2.266345
v -0.058965 -0.176063 -2.240292
v -0.019655 -0.176063 -2.240292
v 0.019655 -0.176063 -2.240292
v 0.058965 -0.176063 -2.240292
v 0.058965 0.176063 -2.240292
v 0.019655 0.176063 -2.240292
v -0.019655 0.176063 -2.240292
v -0.058965 0.176063 -2.240292
v 0.058965 0.000000 -2.240292
v 0.019655 0.000000 -2.240292
v -0.019655 0.000000 -2.240292
v -0.058965 0.000000 -2.240292
v 0.039436 0.137753 -2.240292
v 0.013145 0.137753 -2.240292
v -0.013145 0.137753 -2.240292
v -0.039436 0.137753 -2.240292
v 0.039436 0.038311 -2.240292
v 0.013145 0.038311 -2.240292
v -0.013145 0.038311 -2.240292
v -0.039436 0.038311 -2.240292
v -0.039436 -0.137753 -2.240292
v -0.013145 -0.137753 -2.240292
v 0.013145 -0.137753 -2.240292
v 0.039436 -0.137753 -2.240292
v 0.039436 -0.038311 -2.240292
v 0.013145 -0.038311 -2.240292
v -0.013145 -0.038311 -2.240292
v -0.039436 -0.038311 -2.240292
v 0.032639 0.125574 -2.230653
v 0.019943 0.125574 -2.230653
v -0.019943 0.125574 -2.230653
v -0.032639 0.125574 -2.230653
v 0.039436 0.038311 -2.230653
v 0.006348 0.060489 -2.230653
v -0.006348 0.060489 -2.230653
v -0.039436 0.038311 -2.230653
v -0.039436 -0.137753 -2.230653
v -0.006348 -0.115574 -2.230653
v 0.006348 -0.115574 -2.230653
v 0.039436 -0.137753 -2.230653
v 0.032639 -0.050489 -2.230653
v 0.019943 -0.050489 -2.230653
v -0.019943 -0.050489 -2.230653
v -0.032639 -0.050489 -2.230653
v -0.098275 0.088032 -2.240292
v -0.108493 0.097185 -2.266345
v 0.108493 0.097185 -2.266345
v 0.098275 0.088032 -2.240292
v -0.065727 0.088032 -2.240292
v 0.065727 0.088032 -2.240292
v -0.065727 0.088032 -2.230653
v 0.065727 0.088032 -2.230653
v 0.032639 0.100210 -2.230653
v 0.019943 0.100210 -2.230653
v -0.019943 0.100210 -2.230653
v -0.032639 0.100210 -2.230653
v -0.108493 -0.097185 -2.266345
v 0.108493 -0.097185 -2.266345
v 0.098275 -0.088032 -2.240292
v -0.098275 -0.088032 -2.240292
v 0.065727 -0.088032 -2.240292
v -0.065727 -0.088032 -2.240292
v 0.065727 -0.088032 -2.230653
v -0.065727 -0.088032 -2.230653
v 0.032639 -0.075853 -2.230653
v 0.019943 -0.075853 -2.230653
v -0.019943 -0.075853 -2.230653
v -0.032639 -0.075853 -2.230653
v 0.039436 0.137753 -2.230653
v 0.013145 0.137753 -2.230653
v -0.013145 0.137753 -2.230653
v -0.039436 0.137753 -2.230653
v 0.013145 0.038311 -2.230653
v -0.013145 0.038311 -2.230653
v -0.013145 -0.137753 -2.230653
v 0.013145 -0.137753 -2.230653
v 0.039436 -0.038311 -2.230653
v 0.013145 -0.038311 -2.230653
v -0.013145 -0.038311 -2.230653
v -0.039436 -0.038311 -2.230653
v 0.039436 0.088032 -2.230653
v 0.013145 -0.088032 -2.230653
v 0.006348 -0.100210 -2.230653
v -0.013145 -0.088032 -2.230653
v -0.006348 -0.100210 -2.230653
v 0.013145 0.088032 -2.230653
v 0.006348 0.075853 -2.230653
v -0.013145 0.088032 -2.230653
v -0.006348 0.075853 -2.230653
v -0.039436 0.088032 -2.230653
v 0.039436 -0.088032 -2.230653
v -0.039436 -0.088032 -2.230653
v 0.032639 0.125574 -2.238770
v 0.019943 0.125574 -2.238770
v -0.019943 0.125574 -2.238770
v -0.032639 0.125574 -2.238770
v 0.006348 0.060489 -2.238770
v -0.006348 0.060489 -2.238770
v -0.006348 -0.115574 -2.238770
v 0.006348 -0.115574 -2.238770
v 0.032639 -0.050489 -2.238770
v 0.019943 -0.050489 -2.238770
v -0.019943 -0.050489 -2.238770
v -0.032639 -0.050489 -2.238770
v 0.006348 -0.100210 -2.238770
v -0.006348 -0.100210 -2.238770
v 0.006348 0.075853 -2.238770
v -0.006348 0.075853 -2.238770
v 0.032639 0.100210 -2.238770
v 0.019943 0.100210 -2.238770
v -0.019943 0.100210 -2.238770
v -0.032639 0.100210 -2.238770
v 0.032639 -0.075853 -2.238770
v 0.019943 -0.075853 -2.238770
v -0.019943 -0.075853 -2.238770
v -0.032639 -0.075853 -2.238770
vt 0.458601 0.925161
vt 0.458601 0.958601
vt 0.458601 0.958601
vt 0.458601 0.925161
vt 0.562500 0.791399
vt 0.583601 0.791399
vt 0.583601 0.791399
vt 0.562500 0.791399
vt 0.562500 0.958601
vt 0.583601 0.958601
vt 0.625000 1.000000
vt 0.562500 1.000000
vt 0.500000 1.000000
vt 0.541399 0.958601
vt 0.541399 0.791399
vt 0.500000 0.750000
vt 0.562500 0.750000
vt 0.625000 0.750000
vt 0.437500 0.791399
vt 0.416399 0.791399
vt 0.375000 0.750000
vt 0.437500 0.750000
vt 0.458601 0.791399
vt 0.562500 0.925161
vt 0.583601 0.925161
vt 0.583601 0.958601
vt 0.562500 0.958601
vt 0.437500 0.925161
vt 0.437500 0.958601
vt 0.541399 0.958601
vt 0.416399 0.824839
vt 0.416399 0.791399
vt 0.416399 0.824839
vt 0.541399 0.824839
vt 0.541399 0.791399
vt 0.541399 0.824839
vt 0.583601 0.925161
vt 0.437500 0.958601
vt 0.416399 0.958601
vt 0.416399 0.958601
vt 0.458601 0.791399
vt 0.437500 0.791399
vt 0.583601 0.824839
vt 0.583601 0.824839
vt 0.583601 0.858280
vt 0.583601 0.858280
vt 0.583601 0.891720
vt 0.583601 0.891720
vt 0.541399 0.925161
vt 0.541399 0.925161
vt 0.541399 0.891720
vt 0.541399 0.891720
vt 0.541399 0.858280
vt 0.541399 0.858280
vt 0.416399 0.925161
vt 0.416399 0.925161
vt 0.416399 0.891720
vt 0.416399 0.891720
vt 0.416399 0.858280
vt 0.416399 0.858280
vt 0.458601 0.824839
vt 0.437500 0.824839
vt 0.567668 0.833486
vt 0.578433 0.833486
vt 0.578433 0.833486
vt 0.567668 0.833486
vt 0.437500 0.858280
vt 0.458601 0.858280
vt 0.458601 0.891720
vt 0.437500 0.891720
vt 0.442668 0.833486
vt 0.453433 0.833486
vt 0.453433 0.833486
vt 0.442668 0.833486
vt 0.562500 0.824839
vt 0.546567 0.883074
vt 0.546567 0.866926
vt 0.546567 0.866926
vt 0.546567 0.883074
vt 0.562500 0.858280
vt 0.562500 0.891720
vt 0.557332 0.883074
vt 0.557332 0.883074
vt 0.375000 1.000000
vt 0.375000 0.950000
vt 0.375000 0.900000
vt 0.375000 0.850000
vt 0.375000 0.800000
vt 0.437500 1.000000
vt 0.458601 0.824839
vt 0.500000 0.800000
vt 0.500000 0.850000
vt 0.500000 0.900000
vt 0.500000 0.950000
vt 0.458601 0.891720
vt 0.458601 0.858280
vt 0.562500 0.000000
vt 0.625000 0.000000
vt 0.625000 0.250000
vt 0.562500 0.250000
vt 0.500000 0.250000
vt 0.437500 0.250000
vt 0.375000 0.250000
vt 0.375000 0.000000
vt 0.437500 0.000000
vt 0.500000 0.000000
vt 0.562500 0.500000
vt 0.625000 0.500000
vt 0.375000 0.500000
vt 0.437500 0.500000
vt 0.500000 0.500000
vt 0.567668 0.849634
vt 0.567668 0.849634
vt 0.825000 0.500000
vt 0.875000 0.500000
vt 0.875000 0.750000
vt 0.825000 0.750000
vt 0.775000 0.750000
vt 0.725000 0.750000
vt 0.675000 0.750000
vt 0.675000 0.500000
vt 0.725000 0.500000
vt 0.775000 0.500000
vt 0.578433 0.900366
vt 0.578433 0.916514
vt 0.578433 0.916514
vt 0.578433 0.900366
vt 0.325000 0.500000
vt 0.325000 0.750000
vt 0.275000 0.750000
vt 0.225000 0.750000
vt 0.175000 0.750000
vt 0.125000 0.750000
vt 0.125000 0.500000
vt 0.175000 0.500000
vt 0.225000 0.500000
vt 0.275000 0.500000
vt 0.625000 0.800000
vt 0.625000 0.850000
vt 0.625000 0.900000
vt 0.625000 0.950000
vt 0.625000 0.450000
vt 0.375000 0.450000
vt 0.375000 0.400000
vt 0.375000 0.350000
vt 0.375000 0.300000
vt 0.625000 0.300000
vt 0.625000 0.350000
vt 0.625000 0.400000
vt 0.578433 0.849634
vt 0.421567 0.866926
vt 0.421567 0.883074
vt 0.453433 0.849634
vt 0.453433 0.916514
vt 0.453433 0.900367
vt 0.432332 0.866926
vt 0.432332 0.883074
vt 0.557332 0.866926
vt 0.567668 0.900366
vt 0.567668 0.916514
vt 0.442668 0.849634
vt 0.442668 0.900367
vt 0.442668 0.916514
vt 0.421567 0.866926
vt 0.421567 0.883074
vt 0.442668 0.849634
vt 0.453433 0.849634
vt 0.578433 0.849634
vt 0.453433 0.900367
vt 0.442668 0.900367
vt 0.567668 0.900366
vt 0.453433 0.916514
vt 0.442668 0.916514
vt 0.567668 0.916514
vt 0.432332 0.866926
vt 0.432332 0.883074
vt 0.557332 0.866926
vn 0.0000 1.0000 0.0000
vn 1.0000 0.0000 0.0000
vn 0.0000 0.0000 1.0000
vn -1.0000 0.0000 0.0000
vn 0.0000 -1.0000 0.0000
vn -0.9310 0.0000 0.3651
vn 0.9310 0.0000 0.3651
vn 0.0000 0.8182 0.5749
vn 0.0000 -0.8182 0.5749
vn -0.0000 0.0000 -1.0000
usemtl AshRose
s off
f 64/1/1 13/2/1 28/3/1 116/4/1
f 86/5/2 6/6/2 23/7/2 88/8/2
f 85/9/3 2/10/3 14/11/3 81/12/3 20/13/3 9/14/3
f 86/5/3 12/15/3 17/16/3 84/17/3 15/18/3 6/6/3
f 97/19/3 5/20/3 18/21/3 95/22/3 17/16/3 16/23/3
f 126/24/3 108/25/3 22/26/3 87/27/3
f 128/28/3 116/4/3 28/3/3 100/29/3
f 85/9/4 9/14/4 21/30/4 87/27/4
f 60/31/5 5/20/5 26/32/5 76/33/5
f 53/34/5 12/15/5 24/35/5 69/36/5
f 52/37/1 2/10/1 22/26/1 108/25/1
f 98/38/4 1/39/4 27/40/4 100/29/4
f 97/19/2 16/23/2 25/41/2 99/42/2
f 6/6/1 49/43/1 105/44/1 23/7/1
f 49/43/1 50/45/1 106/46/1 105/44/1
f 50/45/1 51/47/1 107/48/1 106/46/1
f 51/47/1 52/37/1 108/25/1 107/48/1
f 9/14/5 56/49/5 72/50/5 21/30/5
f 56/49/5 55/51/5 110/52/5 72/50/5
f 55/51/5 54/53/5 109/54/5 110/52/5
f 54/53/5 53/34/5 69/36/5 109/54/5
f 1/39/5 57/55/5 73/56/5 27/40/5
f 57/55/5 58/57/5 111/58/5 73/56/5
f 58/57/5 59/59/5 112/60/5 111/58/5
f 59/59/5 60/31/5 76/33/5 112/60/5
f 99/42/3 25/41/3 113/61/3 127/62/3
f 89/63/4 65/64/4 129/65/4 145/66/4
f 118/67/3 114/68/3 115/69/3 120/70/3
f 101/71/4 77/72/4 137/73/4 149/74/4
f 88/8/3 23/7/3 105/44/3 117/75/3
f 71/76/1 70/77/1 133/78/1 134/79/1
f 122/80/3 106/46/3 107/48/3 124/81/3
f 125/82/2 71/76/2 134/79/2 144/83/2
f 57/55/3 1/39/3 19/84/3 37/85/3 38/86/3 39/87/3 40/88/3 18/21/3 5/20/3 60/31/3 59/59/3 58/57/3
f 98/38/3 13/2/3 20/13/3 96/89/3 19/84/3 1/39/3
f 61/90/3 16/23/3 17/16/3 45/91/3 46/92/3 47/93/3 48/94/3 20/13/3 13/2/3 64/1/3 63/95/3 62/96/3
f 56/49/3 9/14/3 20/13/3 48/94/3 47/93/3 46/92/3 45/91/3 17/16/3 12/15/3 53/34/3 54/53/3 55/51/3
f 81/97/6 14/98/6 4/99/6 82/100/6 10/101/6 93/102/6 3/103/6 19/104/6 96/105/6 20/106/6
f 83/107/7 8/108/7 15/18/7 84/17/7 17/16/7 95/22/7 18/21/7 7/109/7 94/110/7 11/111/7
f 16/23/1 61/90/1 113/61/1 25/41/1
f 61/90/1 62/96/1 114/68/1 113/61/1
f 62/96/1 63/95/1 115/69/1 114/68/1
f 63/95/1 64/1/1 116/4/1 115/69/1
f 110/52/3 124/81/3 126/24/3 72/50/3
f 90/112/1 89/63/1 145/66/1 146/113/1
f 69/36/3 117/75/3 122/80/3 109/54/3
f 24/35/3 88/8/3 117/75/3 69/36/3
f 2/10/4 85/9/4 87/27/4 22/26/4
f 72/50/3 126/24/3 87/27/3 21/30/3
f 12/15/2 86/5/2 88/8/2 24/35/2
f 33/114/8 4/115/8 14/116/8 44/117/8 43/118/8 42/119/8 41/120/8 15/18/8 8/108/8 36/121/8 35/122/8 34/123/8
f 111/58/3 120/70/3 128/28/3 73/56/3
f 67/124/5 68/125/5 132/126/5 131/127/5
f 76/33/3 127/62/3 118/67/3 112/60/3
f 26/32/3 99/42/3 127/62/3 76/33/3
f 5/20/2 97/19/2 99/42/2 26/32/2
f 13/2/4 98/38/4 100/29/4 28/3/4
f 73/56/3 128/28/3 100/29/3 27/40/3
f 29/128/9 7/109/9 18/21/9 40/129/9 39/130/9 38/131/9 37/132/9 19/133/9 3/134/9 32/135/9 31/136/9 30/137/9
f 49/43/3 6/6/3 15/18/3 41/138/3 42/139/3 43/140/3 44/141/3 14/11/3 2/10/3 52/37/3 51/47/3 50/45/3
f 36/142/10 8/108/10 83/107/10 11/111/10 94/110/10 7/109/10 29/143/10 30/144/10 31/145/10 32/146/10 3/103/10 93/102/10 10/101/10 82/100/10 4/99/10 33/147/10 34/148/10 35/149/10
f 66/150/3 65/64/3 105/44/3 106/46/3
f 68/125/3 67/124/3 107/48/3 108/25/3
f 70/77/3 71/76/3 110/52/3 109/54/3
f 75/151/3 74/152/3 111/58/3 112/60/3
f 78/153/3 77/72/3 113/61/3 114/68/3
f 80/154/3 79/155/3 115/69/3 116/4/3
f 119/156/3 75/151/3 112/60/3 118/67/3
f 74/152/3 121/157/3 120/70/3 111/58/3
f 123/158/3 70/77/3 109/54/3 122/80/3
f 71/76/3 125/82/3 124/81/3 110/52/3
f 65/64/3 89/63/3 117/75/3 105/44/3
f 90/112/3 66/150/3 106/46/3 122/80/3
f 67/124/3 91/159/3 124/81/3 107/48/3
f 92/160/3 68/125/3 108/25/3 126/24/3
f 91/159/3 92/160/3 126/24/3 124/81/3
f 125/82/3 123/158/3 122/80/3 124/81/3
f 89/63/3 90/112/3 122/80/3 117/75/3
f 77/72/3 101/71/3 127/62/3 113/61/3
f 102/161/3 78/153/3 114/68/3 118/67/3
f 79/155/3 103/162/3 120/70/3 115/69/3
f 104/163/3 80/154/3 116/4/3 128/28/3
f 103/162/3 104/163/3 128/28/3 120/70/3
f 121/157/3 119/156/3 118/67/3 120/70/3
f 101/71/3 102/161/3 118/67/3 127/62/3
f 74/152/1 75/151/1 136/164/1 135/165/1
f 78/153/2 102/161/2 150/166/2 138/167/2
f 66/150/2 90/112/2 146/113/2 130/168/2
f 77/72/5 78/153/5 138/167/5 137/73/5
f 103/162/4 79/155/4 139/169/4 151/170/4
f 91/159/4 67/124/4 131/127/4 147/171/4
f 79/155/5 80/154/5 140/172/5 139/169/5
f 80/154/2 104/163/2 152/173/2 140/172/2
f 68/125/2 92/160/2 148/174/2 132/126/2
f 75/151/4 119/156/4 141/175/4 136/164/4
f 104/163/1 103/162/1 151/170/1 152/173/1
f 92/160/1 91/159/1 147/171/1 148/174/1
f 121/157/2 74/152/2 135/165/2 142/176/2
f 119/156/5 121/157/5 142/176/5 141/175/5
f 65/64/5 66/150/5 130/168/5 129/65/5
f 123/158/5 125/82/5 144/83/5 143/177/5
f 70/77/4 123/158/4 143/177/4 133/78/4
f 102/161/1 101/71/1 149/74/1 150/166/1
usemtl NeutralGray.002
f 149/74/3 137/73/3 138/167/3 150/166/3
f 151/170/3 139/169/3 140/172/3 152/173/3
f 145/66/3 129/65/3 130/168/3 146/113/3
f 147/171/3 131/127/3 132/126/3 148/174/3
f 133/78/3 143/177/3 144/83/3 134/79/3
f 136/164/3 141/175/3 142/176/3 135/165/3
