# Blender v2.83.9 OBJ File: 'USBGame.blend'
# www.blender.org
mtllib Shelf1.mtl
o shelf_Cube.016
v 1.498964 0.253675 0.680872
v 1.558346 0.329802 0.740936
v 1.558346 0.253675 0.740936
v 1.498964 0.163928 0.680872
v 1.484511 0.253675 0.740936
v 1.484511 0.329802 0.740936
v 1.425129 0.253675 0.680872
v 1.425129 0.163928 0.680872
v 1.475196 0.329802 0.740936
v 1.475196 0.253675 0.740936
v 1.416187 0.253675 0.680872
v 1.416187 0.163928 0.680872
v 1.558346 0.253675 0.666894
v 1.498964 0.253675 0.612833
v 1.498964 0.163928 0.520244
v 1.558346 0.329802 0.666894
v 1.425129 0.163928 0.520244
v 1.484511 0.329802 0.666894
v 1.416187 0.163928 0.612833
v 1.475196 0.329802 0.666894
v 1.498964 0.018447 0.340487
v 1.498964 0.018447 0.511788
v 1.425129 0.018447 0.511788
v 1.425129 0.018447 0.340487
v 1.498964 -0.081553 0.340487
v 1.498964 -0.081553 0.408527
v 1.425129 -0.081553 0.408527
v 1.425129 -0.081553 0.340487
v -1.498964 0.253675 0.680872
v -1.558346 0.329802 0.740936
v -1.558346 0.253675 0.740936
v -1.498964 0.163928 0.680872
v -1.484511 0.253675 0.740936
v -1.484511 0.329802 0.740936
v -1.425129 0.253675 0.680872
v -1.425129 0.163928 0.680872
v -1.475196 0.329802 0.740936
v -1.475196 0.253675 0.740936
v -1.416187 0.253675 0.680872
v -1.416187 0.163928 0.680872
v 0.000000 0.253675 0.740936
v 0.000000 0.253675 0.680872
v 0.000000 0.163928 0.680872
v 0.000000 0.329802 0.740936
v -1.558346 0.253675 0.666894
v -1.498964 0.253675 0.612833
v -1.498964 0.163928 0.520244
v -1.558346 0.329802 0.666894
v -1.425129 0.163928 0.520244
v -1.484511 0.329802 0.666894
v -1.416187 0.163928 0.612833
v -1.475196 0.329802 0.666894
v 0.000000 0.329802 0.666894
v 0.000000 0.163928 0.612833
v -1.498964 0.018447 0.340487
v -1.498964 0.018447 0.511788
v -1.425129 0.018447 0.511788
v -1.425129 0.018447 0.340487
v -1.498964 -0.081553 0.340487
v -1.498964 -0.081553 0.408527
v -1.425129 -0.081553 0.408527
v -1.425129 -0.081553 0.340487
v 1.498964 0.253675 -0.680872
v 1.558346 0.329802 -0.680625
v 1.558346 0.253675 -0.680625
v 1.498964 0.163928 -0.680872
v 1.484511 0.253675 -0.680625
v 1.484511 0.329802 -0.680625
v 1.425129 0.253675 -0.680872
v 1.425129 0.163928 -0.680872
v 1.475196 0.329802 -0.680625
v 1.475196 0.253675 -0.680625
v 1.416187 0.253675 -0.680872
v 1.416187 0.163928 -0.680872
v 1.558346 0.253675 0.000000
v 1.498964 0.253675 0.000000
v 1.498964 0.163928 0.000000
v 1.558346 0.329802 0.000000
v 1.425129 0.163928 0.000000
v 1.484511 0.329802 0.000000
v 1.416187 0.163928 0.000000
v 1.475196 0.329802 0.000000
v 1.558346 0.253675 -0.666894
v 1.498964 0.253675 -0.612833
v 1.498964 0.163928 -0.612833
v 1.558346 0.329802 -0.666894
v 1.425129 0.163928 -0.612833
v 1.484511 0.329802 -0.666894
v 1.416187 0.163928 -0.612833
v 1.475196 0.329802 -0.666894
v 1.498964 -0.474435 -0.612833
v 1.498964 -0.474435 -0.680872
v 1.425129 -0.474435 -0.680872
v 1.425129 -0.474435 -0.612833
v 1.498964 -0.574435 -0.612833
v 1.498964 -0.574435 -0.680872
v 1.425129 -0.574435 -0.680872
v 1.425129 -0.574435 -0.612833
v -1.498964 0.253675 -0.680872
v -1.558346 0.329802 -0.680625
v -1.558346 0.253675 -0.680625
v -1.498964 0.163928 -0.680872
v -1.484511 0.253675 -0.680625
v -1.484511 0.329802 -0.680625
v -1.425129 0.253675 -0.680872
v -1.425129 0.163928 -0.680872
v -1.475196 0.329802 -0.680625
v -1.475196 0.253675 -0.680625
v -1.416187 0.253675 -0.680872
v -1.416187 0.163928 -0.680872
v 0.000000 0.253675 -0.680625
v 0.000000 0.253675 -0.680872
v 0.000000 0.163928 -0.680872
v 0.000000 0.329802 -0.680625
v -1.558346 0.253675 0.000000
v -1.498964 0.253675 0.000000
v -1.498964 0.163928 0.000000
v -1.558346 0.329802 0.000000
v -1.425129 0.163928 0.000000
v -1.484511 0.329802 0.000000
v -1.416187 0.163928 0.000000
v -1.475196 0.329802 0.000000
v 0.000000 0.329802 0.000000
v 0.000000 0.163928 0.000000
v -1.558346 0.253675 -0.666894
v -1.498964 0.253675 -0.612833
v -1.498964 0.163928 -0.612833
v -1.558346 0.329802 -0.666894
v -1.425129 0.163928 -0.612833
v -1.484511 0.329802 -0.666894
v -1.416187 0.163928 -0.612833
v -1.475196 0.329802 -0.666894
v 0.000000 0.329802 -0.666894
v 0.000000 0.163928 -0.612833
v -1.498964 -0.474435 -0.612833
v -1.498964 -0.474435 -0.680872
v -1.425129 -0.474435 -0.680872
v -1.425129 -0.474435 -0.612833
v -1.498964 -0.574435 -0.612833
v -1.498964 -0.574435 -0.680872
v -1.425129 -0.574435 -0.680872
v -1.425129 -0.574435 -0.612833
v 1.498964 -0.093244 0.000000
v 1.498964 0.006756 0.000000
v 1.425129 -0.093244 0.000000
v 1.425129 0.006756 0.000000
v -1.498964 -0.093244 0.000000
v -1.498964 0.006756 0.000000
v -1.425129 -0.093244 0.000000
v -1.425129 0.006756 0.000000
v 1.344152 0.163928 0.680872
v 1.344152 0.163928 0.520244
v 1.344152 0.018447 0.511788
v 1.344152 0.018447 0.340487
v 1.344152 -0.081553 0.408527
v 1.344152 -0.081553 0.340487
v 1.344152 0.006756 0.000000
v -1.344152 0.163928 0.680872
v -1.344152 0.163928 0.520244
v -1.344152 0.018447 0.511788
v -1.344152 0.018447 0.340487
v -1.344152 -0.081553 0.408527
v -1.344152 -0.081553 0.340487
v -1.344152 0.006756 0.000000
v 1.344152 -0.093244 0.000000
v -1.344152 -0.093244 0.000000
v 1.344152 0.163928 -0.680872
v 1.344152 0.163928 -0.612833
v 1.344152 -0.474435 -0.680872
v 1.344152 -0.474435 -0.612833
v 1.344152 -0.574435 -0.680872
v 1.344152 -0.574435 -0.612833
v -1.344152 0.163928 -0.680872
v -1.344152 0.163928 -0.612833
v -1.344152 -0.474435 -0.680872
v -1.344152 -0.474435 -0.612833
v -1.344152 -0.574435 -0.680872
v -1.344152 -0.574435 -0.612833
vt 0.370237 0.510133
vt 0.370237 0.510133
vt 0.370237 0.510133
vt 0.370237 0.510133
vt 0.369482 0.510133
vt 0.369482 0.510133
vt 0.250000 0.510133
vt 0.250000 0.510133
vt 0.250000 0.521612
vt 0.250000 0.625000
vt 0.369482 0.625000
vt 0.369482 0.521612
vt 0.370237 0.625000
vt 0.370237 0.521612
vt 0.370237 0.625000
vt 0.370237 0.521612
vt 0.370237 0.521612
vt 0.370237 0.625000
vt 0.370237 0.510133
vt 0.370237 0.510133
vt 0.370237 0.521612
vt 0.370237 0.521612
vt 0.370237 0.521612
vt 0.370237 0.521612
vt 0.370237 0.521612
vt 0.370237 0.521612
vt 0.370237 0.521612
vt 0.370237 0.521612
vt 0.370237 0.510133
vt 0.370237 0.521612
vt 0.370237 0.521612
vt 0.370237 0.510133
vt 0.370237 0.510133
vt 0.370237 0.510133
vt 0.370237 0.510133
vt 0.370237 0.510133
vt 0.369482 0.510133
vt 0.369482 0.510133
vt 0.369482 0.521612
vt 0.369482 0.625000
vt 0.370237 0.521612
vt 0.370237 0.625000
vt 0.370237 0.521612
vt 0.370237 0.625000
vt 0.370237 0.521612
vt 0.370237 0.625000
vt 0.370237 0.510133
vt 0.370237 0.510133
vt 0.370237 0.521612
vt 0.370237 0.521612
vt 0.370237 0.521612
vt 0.370237 0.521612
vt 0.370237 0.510133
vt 0.370237 0.510133
vt 0.370237 0.510133
vt 0.370237 0.510133
vt 0.370237 0.521612
vt 0.370237 0.510133
vt 0.370237 0.510133
vt 0.370237 0.510133
vt 0.370237 0.510133
vt 0.370237 0.521612
vt 0.370237 0.521612
vt 0.370237 0.521612
vt 0.370237 0.521612
vt 0.370237 0.521612
vt 0.370237 0.521612
vt 0.370237 0.521612
vt 0.370237 0.521612
vt 0.370237 0.521612
vt 0.370237 0.521612
vt 0.370237 0.521612
vt 0.370237 0.510133
vt 0.370237 0.510133
vt 0.370237 0.510133
vt 0.369482 0.510133
vt 0.369482 0.510133
vt 0.250000 0.510133
vt 0.250000 0.510133
vt 0.250000 0.521612
vt 0.369482 0.521612
vt 0.370237 0.521612
vt 0.370237 0.521612
vt 0.370237 0.521612
vt 0.370237 0.510133
vt 0.370237 0.521612
vt 0.370237 0.521612
vt 0.370237 0.521612
vt 0.370237 0.521612
vt 0.370237 0.521612
vt 0.370237 0.510133
vt 0.370237 0.510133
vt 0.370237 0.510133
vt 0.370237 0.521612
vt 0.370237 0.521612
vt 0.370237 0.510133
vt 0.370237 0.510133
vt 0.370237 0.510133
vt 0.370237 0.510133
vt 0.369482 0.510133
vt 0.369482 0.510133
vt 0.369482 0.521612
vt 0.370237 0.521612
vt 0.370237 0.521612
vt 0.370237 0.510133
vt 0.370237 0.510133
vt 0.370237 0.521612
vt 0.370237 0.521612
vt 0.370237 0.521612
vt 0.370237 0.521612
vt 0.370237 0.510133
vt 0.370237 0.521612
vt 0.370237 0.510133
vt 0.370237 0.510133
vt 0.370237 0.510133
vt 0.370237 0.521612
vt 0.370237 0.510133
vt 0.370237 0.521612
vt 0.370237 0.510133
vt 0.370237 0.521612
vt 0.370237 0.510133
vt 0.370237 0.510133
vt 0.370237 0.510133
vt 0.375000 0.500000
vt 0.375000 0.500000
vt 0.625000 0.500000
vt 0.625000 0.500000
vt 0.375000 0.512491
vt 0.375000 0.499216
vt 0.625000 0.499216
vt 0.374216 0.500000
vt 0.375000 0.375000
vt 0.625000 0.375000
vt 0.250000 0.500000
vt 0.625784 0.512491
vt 0.625784 0.625000
vt 0.750000 0.625000
vt 0.750000 0.512491
vt 0.625000 0.512491
vt 0.625000 0.625000
vt 0.625000 0.512491
vt 0.625000 0.625000
vt 0.375000 0.625000
vt 0.625784 0.500000
vt 0.750000 0.500000
vt 0.375000 0.500000
vt 0.625000 0.500000
vt 0.625000 0.500000
vt 0.375000 0.500000
vt 0.375000 0.512491
vt 0.375000 0.499216
vt 0.625000 0.499216
vt 0.374216 0.500000
vt 0.625784 0.512491
vt 0.625784 0.625000
vt 0.625000 0.512491
vt 0.625000 0.625000
vt 0.625000 0.512491
vt 0.625000 0.625000
vt 0.375000 0.625000
vt 0.625784 0.500000
vt 0.375000 0.500000
vt 0.625000 0.500000
vt 0.625000 0.500000
vt 0.375000 0.500000
vt 0.375000 0.512491
vt 0.375000 0.499216
vt 0.625000 0.499216
vt 0.374216 0.500000
vt 0.375000 0.375000
vt 0.625000 0.375000
vt 0.250000 0.500000
vt 0.625784 0.512491
vt 0.750000 0.512491
vt 0.625000 0.512491
vt 0.625000 0.512491
vt 0.625784 0.500000
vt 0.750000 0.500000
vt 0.375000 0.500000
vt 0.375000 0.500000
vt 0.625000 0.500000
vt 0.625000 0.500000
vt 0.375000 0.512491
vt 0.375000 0.499216
vt 0.625000 0.499216
vt 0.374216 0.500000
vt 0.625784 0.512491
vt 0.625000 0.512491
vt 0.625000 0.512491
vt 0.625784 0.500000
vn 0.0000 0.0000 1.0000
vn 0.0000 -1.0000 0.0000
vn 1.0000 0.0000 0.0000
vn 0.0000 -0.7580 0.6522
vn 0.0000 -0.9994 0.0343
vn 0.0000 0.7773 -0.6291
vn 0.0000 -0.7865 0.6176
vn 0.0000 -0.7184 0.6957
vn -1.0000 0.0000 0.0000
vn 0.0000 0.0000 -1.0000
vn 0.0000 0.9994 -0.0343
vn 0.0000 0.7865 -0.6176
vn 0.0000 1.0000 0.0000
vn 0.0000 1.0000 -0.0001
vn 0.0000 1.0000 0.0001
usemtl NeutralGray.001
s off
f 7/1/1 8/2/1 4/3/1 1/4/1
f 11/5/1 12/6/1 8/2/1 7/1/1
f 42/7/1 43/8/1 12/6/1 11/5/1
f 54/9/2 124/10/2 81/11/2 19/12/2
f 19/12/2 81/11/2 79/13/2 17/14/2
f 17/14/2 79/13/2 77/15/2 15/16/2
f 14/17/3 15/16/3 77/15/3 76/18/3
f 1/4/3 4/3/3 15/16/3 14/17/3
f 4/3/4 8/2/4 23/19/4 22/20/4
f 12/6/2 19/12/2 17/14/2 8/2/2
f 43/8/2 54/9/2 19/12/2 12/6/2
f 62/21/5 149/22/5 166/23/5 163/24/5
f 17/14/6 15/16/6 21/25/6 24/26/6
f 149/22/7 142/27/7 178/28/7 166/23/7
f 15/16/3 4/3/3 22/20/3 21/25/3
f 27/29/2 28/30/2 25/31/2 26/32/2
f 21/25/3 22/20/3 26/32/3 25/31/3
f 22/20/8 23/19/8 27/29/8 26/32/8
f 35/33/1 29/34/1 32/35/1 36/36/1
f 39/37/1 35/33/1 36/36/1 40/38/1
f 42/7/1 39/37/1 40/38/1 43/8/1
f 54/9/2 51/39/2 121/40/2 124/10/2
f 51/39/2 49/41/2 119/42/2 121/40/2
f 49/41/2 47/43/2 117/44/2 119/42/2
f 46/45/9 116/46/9 117/44/9 47/43/9
f 29/34/9 46/45/9 47/43/9 32/35/9
f 32/35/4 56/47/4 57/48/4 36/36/4
f 40/38/2 36/36/2 49/41/2 51/39/2
f 43/8/2 40/38/2 51/39/2 54/9/2
f 58/49/6 49/41/6 159/50/6 161/51/6
f 49/41/6 58/49/6 55/52/6 47/43/6
f 27/29/8 23/19/8 153/53/8 155/54/8
f 47/43/9 55/52/9 56/47/9 32/35/9
f 61/55/2 60/56/2 59/57/2 62/21/2
f 55/52/9 59/57/9 60/56/9 56/47/9
f 56/47/8 60/56/8 61/55/8 57/48/8
f 70/58/10 93/59/10 169/60/10 167/61/10
f 58/49/11 150/62/11 148/63/11 55/52/11
f 55/52/9 148/63/9 147/64/9 59/57/9
f 59/57/5 147/64/5 149/22/5 62/21/5
f 129/65/1 138/66/1 176/67/1 174/68/1
f 24/26/11 21/25/11 144/69/11 146/70/11
f 21/25/3 25/31/3 143/71/3 144/69/3
f 25/31/5 28/30/5 145/72/5 143/71/5
f 69/73/10 63/74/10 66/75/10 70/58/10
f 73/76/10 69/73/10 70/58/10 74/77/10
f 112/78/10 73/76/10 74/77/10 113/79/10
f 134/80/2 89/81/2 81/11/2 124/10/2
f 89/81/2 87/82/2 79/13/2 81/11/2
f 87/82/2 85/83/2 77/15/2 79/13/2
f 84/84/3 76/18/3 77/15/3 85/83/3
f 63/74/3 84/84/3 85/83/3 66/75/3
f 66/75/10 92/85/10 93/59/10 70/58/10
f 74/77/2 70/58/2 87/82/2 89/81/2
f 113/79/2 74/77/2 89/81/2 134/80/2
f 146/70/12 94/86/12 170/87/12 157/88/12
f 87/82/1 94/86/1 91/89/1 85/83/1
f 8/2/13 17/14/13 152/90/13 151/91/13
f 85/83/3 91/89/3 92/85/3 66/75/3
f 97/92/2 96/93/2 95/94/2 98/95/2
f 91/89/3 95/94/3 96/93/3 92/85/3
f 92/85/10 96/93/10 97/92/10 93/59/10
f 105/96/10 106/97/10 102/98/10 99/99/10
f 109/100/10 110/101/10 106/97/10 105/96/10
f 112/78/10 113/79/10 110/101/10 109/100/10
f 134/80/2 124/10/2 121/40/2 131/102/2
f 131/102/2 121/40/2 119/42/2 129/65/2
f 129/65/2 119/42/2 117/44/2 127/103/2
f 126/104/9 127/103/9 117/44/9 116/46/9
f 99/99/9 102/98/9 127/103/9 126/104/9
f 102/98/10 106/97/10 137/105/10 136/106/10
f 110/101/2 131/102/2 129/65/2 106/97/2
f 113/79/2 134/80/2 131/102/2 110/101/2
f 145/72/5 28/30/5 156/107/5 165/108/5
f 129/65/1 127/103/1 135/109/1 138/66/1
f 98/95/7 145/72/7 165/108/7 172/110/7
f 127/103/9 102/98/9 136/106/9 135/109/9
f 141/111/2 142/27/2 139/112/2 140/113/2
f 135/109/9 136/106/9 140/113/9 139/112/9
f 136/106/10 137/105/10 141/111/10 140/113/10
f 28/30/2 27/29/2 155/54/2 156/107/2
f 138/66/12 135/109/12 148/63/12 150/62/12
f 135/109/9 139/112/9 147/64/9 148/63/9
f 139/112/7 142/27/7 149/22/7 147/64/7
f 36/36/4 57/48/4 160/114/4 158/115/4
f 94/86/12 146/70/12 144/69/12 91/89/12
f 91/89/3 144/69/3 143/71/3 95/94/3
f 95/94/7 143/71/7 145/72/7 98/95/7
f 153/53/9 154/116/9 156/107/9 155/54/9
f 151/91/9 152/90/9 154/116/9 153/53/9
f 160/114/3 162/117/3 163/24/3 161/51/3
f 158/115/3 160/114/3 161/51/3 159/50/3
f 163/24/3 166/23/3 164/118/3 161/51/3
f 156/107/9 154/116/9 157/88/9 165/108/9
f 169/60/9 171/119/9 172/110/9 170/87/9
f 167/61/9 169/60/9 170/87/9 168/120/9
f 175/121/3 176/67/3 178/28/3 177/122/3
f 173/123/3 174/68/3 176/67/3 175/121/3
f 178/28/3 176/67/3 164/118/3 166/23/3
f 172/110/9 165/108/9 157/88/9 170/87/9
f 142/27/2 141/111/2 177/122/2 178/28/2
f 94/86/1 87/82/1 168/120/1 170/87/1
f 61/55/2 62/21/2 163/24/2 162/117/2
f 24/26/11 146/70/11 157/88/11 154/116/11
f 23/19/4 8/2/4 151/91/4 153/53/4
f 141/111/10 137/105/10 175/121/10 177/122/10
f 97/92/2 98/95/2 172/110/2 171/119/2
f 57/48/8 61/55/8 162/117/8 160/114/8
f 106/97/13 129/65/13 174/68/13 173/123/13
f 49/41/13 36/36/13 158/115/13 159/50/13
f 87/82/13 70/58/13 167/61/13 168/120/13
f 17/14/6 24/26/6 154/116/6 152/90/6
f 93/59/10 97/92/10 171/119/10 169/60/10
f 138/66/12 150/62/12 164/118/12 176/67/12
f 137/105/10 106/97/10 173/123/10 175/121/10
f 150/62/11 58/49/11 161/51/11 164/118/11
usemtl AshRose
f 5/124/1 3/125/1 2/126/1 6/127/1
f 14/17/2 13/128/2 3/125/2 1/4/2
f 1/4/2 3/125/2 5/124/2 7/1/2
f 10/129/1 5/124/1 6/127/1 9/130/1
f 7/1/2 5/124/2 10/131/2 11/5/2
f 41/132/1 10/129/1 9/130/1 44/133/1
f 11/5/2 10/131/2 41/134/2 42/7/2
f 20/135/13 82/136/13 123/137/13 53/138/13
f 18/139/13 80/140/13 82/136/13 20/135/13
f 16/141/13 78/142/13 80/140/13 18/139/13
f 13/128/3 75/143/3 78/142/3 16/141/3
f 3/125/3 13/128/3 16/141/3 2/126/3
f 2/126/13 16/141/13 18/139/13 6/127/13
f 6/127/13 18/139/13 20/135/13 9/144/13
f 9/144/13 20/135/13 53/138/13 44/145/13
f 76/18/2 75/143/2 13/128/2 14/17/2
f 33/146/1 34/147/1 30/148/1 31/149/1
f 46/45/2 29/34/2 31/149/2 45/150/2
f 29/34/2 35/33/2 33/146/2 31/149/2
f 38/151/1 37/152/1 34/147/1 33/146/1
f 35/33/2 39/37/2 38/153/2 33/146/2
f 41/132/1 44/133/1 37/152/1 38/151/1
f 39/37/2 42/7/2 41/134/2 38/153/2
f 52/154/13 53/138/13 123/137/13 122/155/13
f 50/156/13 52/154/13 122/155/13 120/157/13
f 48/158/13 50/156/13 120/157/13 118/159/13
f 45/150/9 48/158/9 118/159/9 115/160/9
f 31/149/9 30/148/9 48/158/9 45/150/9
f 30/148/13 34/147/13 50/156/13 48/158/13
f 34/147/13 37/161/13 52/154/13 50/156/13
f 37/161/13 44/145/13 53/138/13 52/154/13
f 116/46/2 46/45/2 45/150/2 115/160/2
f 67/162/10 68/163/10 64/164/10 65/165/10
f 84/84/2 63/74/2 65/165/2 83/166/2
f 63/74/13 69/73/13 67/162/13 65/165/13
f 72/167/10 71/168/10 68/163/10 67/162/10
f 69/73/13 73/76/13 72/169/13 67/162/13
f 111/170/10 114/171/10 71/168/10 72/167/10
f 73/76/14 112/78/14 111/172/14 72/169/14
f 90/173/13 133/174/13 123/137/13 82/136/13
f 88/175/13 90/173/13 82/136/13 80/140/13
f 86/176/13 88/175/13 80/140/13 78/142/13
f 83/166/3 86/176/3 78/142/3 75/143/3
f 65/165/3 64/164/3 86/176/3 83/166/3
f 64/164/13 68/163/13 88/175/13 86/176/13
f 68/163/13 71/177/13 90/173/13 88/175/13
f 71/177/13 114/178/13 133/174/13 90/173/13
f 76/18/2 84/84/2 83/166/2 75/143/2
f 103/179/10 101/180/10 100/181/10 104/182/10
f 126/104/2 125/183/2 101/180/2 99/99/2
f 99/99/15 101/180/15 103/179/15 105/96/15
f 108/184/10 103/179/10 104/182/10 107/185/10
f 105/96/13 103/179/13 108/186/13 109/100/13
f 111/170/10 108/184/10 107/185/10 114/171/10
f 109/100/14 108/186/14 111/172/14 112/78/14
f 132/187/13 122/155/13 123/137/13 133/174/13
f 130/188/13 120/157/13 122/155/13 132/187/13
f 128/189/13 118/159/13 120/157/13 130/188/13
f 125/183/9 115/160/9 118/159/9 128/189/9
f 101/180/9 125/183/9 128/189/9 100/181/9
f 100/181/13 128/189/13 130/188/13 104/182/13
f 104/182/13 130/188/13 132/187/13 107/190/13
f 107/190/13 132/187/13 133/174/13 114/178/13
f 116/46/2 115/160/2 125/183/2 126/104/2
