# Blender v2.83.9 OBJ File: 'USBGame.blend'
# www.blender.org
mtllib Trim.mtl
o Trim_Cube.030
v -1.000000 -0.271209 0.069563
v -1.000000 0.271209 0.069563
v -1.000000 -0.271209 -0.058316
v -1.000000 0.271209 0.013517
v 1.000000 -0.271209 0.069563
v 1.000000 0.271209 0.069563
v 1.000000 -0.271209 -0.058316
v 1.000000 0.271209 0.013517
v -1.000000 0.360183 -0.116232
v -1.000000 -0.271209 -0.116232
v 1.000000 -0.271209 -0.116232
v 1.000000 0.360183 -0.116232
v -1.000000 0.360183 -0.178315
v -1.000000 -0.271209 -0.178315
v 1.000000 -0.271209 -0.178315
v 1.000000 0.360183 -0.178315
v -1.000000 0.418728 -0.116232
v 1.000000 0.418728 -0.116232
v -1.000000 0.418728 -0.178315
v 1.000000 0.418728 -0.178315
vt 0.375000 0.000000
vt 0.625000 0.000000
vt 0.625000 0.250000
vt 0.375000 0.250000
vt 0.625000 0.500000
vt 0.375000 0.500000
vt 0.375000 0.500000
vt 0.625000 0.500000
vt 0.625000 0.750000
vt 0.375000 0.750000
vt 0.625000 1.000000
vt 0.375000 1.000000
vt 0.125000 0.500000
vt 0.125000 0.750000
vt 0.875000 0.500000
vt 0.875000 0.750000
vt 0.375000 0.500000
vt 0.625000 0.500000
vt 0.125000 0.500000
vt 0.875000 0.500000
vt 0.625000 0.250000
vt 0.375000 0.250000
vt 0.375000 0.250000
vt 0.625000 0.250000
vt 0.125000 0.500000
vt 0.625000 0.250000
vt 0.625000 0.500000
vt 0.875000 0.500000
vt 0.625000 0.500000
vt 0.875000 0.500000
vt 0.625000 0.250000
vn -1.0000 0.0000 0.0000
vn 1.0000 0.0000 0.0000
vn 0.0000 0.0000 1.0000
vn 0.0000 -1.0000 0.0000
vn 0.0000 1.0000 0.0000
vn 0.0000 0.8247 0.5655
vn 0.0000 0.0000 -1.0000
usemtl AshRose
s off
f 1/1/1 2/2/1 4/3/1 3/4/1
f 8/5/2 7/6/2 11/7/2 12/8/2
f 7/6/2 8/5/2 6/9/2 5/10/2
f 5/10/3 6/9/3 2/11/3 1/12/3
f 3/13/4 7/6/4 5/10/4 1/14/4
f 8/5/5 4/15/5 2/16/5 6/9/5
f 12/8/2 11/7/2 15/17/2 16/18/2
f 7/6/4 3/13/4 10/19/4 11/7/4
f 4/15/6 8/5/6 12/8/6 9/20/6
f 3/4/1 4/3/1 9/21/1 10/22/1
f 14/23/7 13/24/7 16/18/7 15/17/7
f 11/7/4 10/19/4 14/25/4 15/17/4
f 16/18/7 13/24/7 19/26/7 20/27/7
f 10/22/1 9/21/1 13/24/1 14/23/1
f 17/28/5 18/29/5 20/27/5 19/30/5
f 13/24/1 9/21/1 17/31/1 19/26/1
f 9/20/3 12/8/3 18/29/3 17/28/3
f 12/8/2 16/18/2 20/27/2 18/29/2
