# Blender v2.83.9 OBJ File: 'USBGame.blend'
# www.blender.org
mtllib TV.mtl
o TV_Cube.046
v -0.352893 -0.784017 0.307630
v -0.352893 0.215090 0.307630
v -1.558313 -0.937198 -0.079841
v -1.558313 0.937198 -0.079841
v 0.352893 -0.784017 0.307630
v 0.352893 0.215090 0.307630
v 1.558313 -0.937198 -0.079841
v 1.558313 0.937198 -0.079841
v -1.714838 -1.031335 0.079841
v -1.714838 1.031335 0.079841
v 1.714838 1.031335 0.079841
v 1.714838 -1.031335 0.079841
v -1.487896 -1.001983 0.307630
v -1.487896 0.787713 0.307630
v 1.487896 0.787713 0.307630
v 1.487896 -1.001983 0.307630
v -0.352893 -0.784017 0.384696
v -0.352893 0.215090 0.384696
v 0.352893 0.215090 0.384696
v 0.352893 -0.784017 0.384696
v -0.256811 -0.648003 0.500215
v -0.198730 0.044145 0.500215
v 0.198730 0.044145 0.500215
v 0.256811 -0.648003 0.500215
v -1.714838 0.000000 0.079841
v -1.558313 0.000000 -0.079841
v 1.558313 0.000000 -0.079841
v 1.714838 0.000000 0.079841
v -1.487896 -0.107135 0.307630
v 1.487896 -0.107135 0.307630
v -0.352893 -0.284463 0.307630
v 0.352893 -0.284463 0.307630
v -0.352893 -0.284463 0.384696
v 0.352893 -0.284463 0.384696
v -0.198730 -0.249533 0.500215
v 0.198730 -0.249533 0.500215
v -0.352893 -1.122015 0.307630
v 0.352893 -1.122015 0.307630
v -0.352893 -1.122015 0.384696
v 0.352893 -1.122015 0.384696
v -0.352893 -1.197347 0.307630
v 0.352893 -1.197347 0.307630
v -0.352893 -1.197347 0.384696
v 0.352893 -1.197347 0.384696
v -1.291472 -1.122015 -0.156481
v 1.291472 -1.122015 -0.156481
v -1.291472 -1.122015 0.674426
v 1.291472 -1.122015 0.674426
v -1.291472 -1.197347 -0.156481
v 1.291472 -1.197347 -0.156481
v -1.291472 -1.197347 0.674426
v 1.291472 -1.197347 0.674426
v -0.256811 -0.284463 0.500215
v -0.256811 0.079076 0.500215
v 0.256811 0.079076 0.500215
v 0.256811 -0.284463 0.500215
v -0.129652 -0.113338 0.454016
v -0.129652 -0.092049 0.454016
v -0.085756 -0.092049 0.454016
v -0.085756 -0.113338 0.454016
v -0.198730 -0.249533 0.454016
v -0.198730 0.044145 0.454016
v 0.198730 0.044145 0.454016
v 0.198730 -0.249533 0.454016
v -0.129652 -0.113338 0.417269
v -0.129652 -0.092049 0.417269
v -0.085756 -0.092049 0.417269
v -0.085756 -0.113338 0.417269
v -1.662736 0.000000 -0.079841
v -1.662736 -1.000000 -0.079841
v 1.662736 -1.000000 -0.079841
v -1.662736 1.000000 -0.079841
v 1.662736 1.000000 -0.079841
v 1.662736 0.000000 -0.079841
v -1.558313 0.000000 -0.046053
v 1.558313 0.000000 -0.046053
v -1.558313 -0.937198 -0.046053
v 1.558313 -0.937198 -0.046053
v -1.558313 0.937198 -0.046053
v 1.558313 0.937198 -0.046053
vt 0.500000 0.000000
vt 0.625000 0.000000
vt 0.625000 0.250000
vt 0.500000 0.250000
vt 0.617150 0.257850
vt 0.617150 0.492150
vt 0.617150 0.492150
vt 0.617150 0.257850
vt 0.500000 0.500000
vt 0.625000 0.500000
vt 0.625000 0.750000
vt 0.500000 0.750000
vt 0.560547 0.814453
vt 0.560547 0.935547
vt 0.560547 0.935547
vt 0.560547 0.814453
vt 0.125000 0.500000
vt 0.375000 0.500000
vt 0.375000 0.750000
vt 0.125000 0.750000
vt 0.875000 0.500000
vt 0.875000 0.750000
vt 0.500000 0.983457
vt 0.608457 0.983457
vt 0.625000 1.000000
vt 0.500000 1.000000
vt 0.500000 0.766542
vt 0.391543 0.766542
vt 0.391542 0.983457
vt 0.375000 1.000000
vt 0.608457 0.766542
vt 0.500000 0.935547
vt 0.500000 0.814453
vt 0.439453 0.814453
vt 0.439453 0.935547
vt 0.439453 0.935547
vt 0.439453 0.814453
vt 0.439453 0.814453
vt 0.439453 0.935547
vt 0.500000 0.814453
vt 0.439453 0.935547
vt 0.439453 0.935547
vt 0.500000 0.935547
vt 0.505818 0.921853
vt 0.505818 0.828146
vt 0.505818 0.828146
vt 0.505818 0.921853
vt 0.500000 0.935547
vt 0.560547 0.935547
vt 0.560547 0.814453
vt 0.500000 0.814453
vt 0.500000 0.257850
vt 0.500000 0.257850
vt 0.375000 0.000000
vt 0.375000 0.250000
vt 0.439453 0.935547
vt 0.439453 0.814453
vt 0.439453 0.814453
vt 0.439453 0.935547
vt 0.439453 0.814453
vt 0.439453 0.814453
vt 0.439453 0.935547
vt 0.439453 0.814453
vt 0.439453 0.814453
vt 0.439453 0.935547
vt 0.439453 0.935547
vt 0.439453 0.814453
vt 0.439453 0.814453
vt 0.439453 0.935547
vt 0.554729 0.921853
vt 0.554729 0.828146
vt 0.519822 0.888891
vt 0.519822 0.861109
vt 0.519822 0.861109
vt 0.519822 0.888891
vt 0.554729 0.921853
vt 0.554729 0.828146
vt 0.540725 0.861109
vt 0.540725 0.888891
vt 0.540725 0.888891
vt 0.540725 0.861109
vt 0.382850 0.257850
vt 0.382850 0.492150
vt 0.500000 0.492150
vt 0.382850 0.257850
vt 0.500000 0.492150
vt 0.382850 0.492150
vn -0.9507 0.0000 -0.3102
vn 0.0000 -1.0000 0.0000
vn 0.9507 0.0000 -0.3102
vn 0.0000 1.0000 0.0000
vn 0.0000 -0.9813 -0.1926
vn 0.0000 0.9813 -0.1926
vn -0.7084 0.0000 0.7058
vn 0.7084 0.0000 0.7058
vn 0.0000 -0.9918 0.1278
vn 0.0000 0.6830 0.7304
vn 0.0000 0.0000 1.0000
vn 0.0000 -0.6473 0.7622
vn 1.0000 0.0000 0.0000
vn -1.0000 0.0000 0.0000
vn -0.7688 0.0000 0.6395
vn 0.0000 0.6473 0.7622
vn 0.7688 0.0000 0.6395
vn 0.0000 0.0000 -1.0000
usemtl HeliotropeGray.004
s off
f 25/1/1 10/2/1 72/3/1 69/4/1
f 4/5/2 8/6/2 80/7/2 79/8/2
f 74/9/3 73/10/3 11/11/3 28/12/3
f 6/13/4 2/14/4 18/15/4 19/16/4
f 70/17/5 71/18/5 12/19/5 9/20/5
f 73/10/6 72/21/6 10/22/6 11/11/6
f 29/23/7 14/24/7 10/25/7 25/26/7
f 30/27/8 16/28/8 12/19/8 28/12/8
f 16/28/9 13/29/9 9/30/9 12/19/9
f 14/24/10 15/31/10 11/11/10 10/25/10
f 31/32/11 2/14/11 14/24/11 29/23/11
f 32/33/11 5/34/11 16/28/11 30/27/11
f 5/34/11 1/35/11 13/29/11 16/28/11
f 2/14/11 6/13/11 15/31/11 14/24/11
f 17/36/12 20/37/12 24/38/12 21/39/12
f 32/33/13 6/13/13 19/16/13 34/40/13
f 17/36/14 1/35/14 37/41/14 39/42/14
f 31/32/14 1/35/14 17/36/14 33/43/14
f 35/44/4 36/45/4 64/46/4 61/47/4
f 33/43/15 17/36/15 21/39/15 53/48/15
f 19/16/16 18/15/16 54/49/16 55/50/16
f 34/40/17 19/16/17 55/50/17 56/51/17
f 20/37/17 34/40/17 56/51/17 24/38/17
f 18/15/15 33/43/15 53/48/15 54/49/15
f 24/38/11 56/51/11 53/48/11 21/39/11
f 2/14/14 31/32/14 33/43/14 18/15/14
f 5/34/13 32/33/13 34/40/13 20/37/13
f 6/13/11 32/33/11 30/27/11 15/31/11
f 1/35/11 31/32/11 29/23/11 13/29/11
f 15/31/8 30/27/8 28/12/8 11/11/8
f 13/29/7 29/23/7 25/26/7 9/30/7
f 71/18/3 74/9/3 28/12/3 12/19/3
f 26/52/13 4/5/13 79/8/13 75/53/13
f 9/54/1 25/1/1 69/4/1 70/55/1
f 43/56/2 44/57/2 52/58/2 51/59/2
f 1/35/18 5/34/18 38/60/18 37/41/18
f 5/34/13 20/37/13 40/61/13 38/60/13
f 20/37/11 17/36/11 39/42/11 40/61/11
f 41/62/2 42/63/2 44/57/2 43/56/2
f 37/41/4 38/60/4 46/64/4 45/65/4
f 41/62/2 43/56/2 51/59/2 49/66/2
f 38/60/4 40/61/4 48/67/4 46/64/4
f 46/64/13 48/67/13 52/58/13 50/68/13
f 45/65/18 46/64/18 50/68/18 49/66/18
f 47/69/14 45/65/14 49/66/14 51/59/14
f 48/67/11 47/69/11 51/59/11 52/58/11
f 39/42/4 37/41/4 45/65/4 47/69/4
f 40/61/4 39/42/4 47/69/4 48/67/4
f 44/57/2 42/63/2 50/68/2 52/58/2
f 42/63/2 41/62/2 49/66/2 50/68/2
f 35/44/11 22/70/11 54/49/11 53/48/11
f 22/70/11 23/71/11 55/50/11 54/49/11
f 23/71/11 36/45/11 56/51/11 55/50/11
f 36/45/11 35/44/11 53/48/11 56/51/11
f 57/72/4 60/73/4 68/74/4 65/75/4
f 23/71/2 22/70/2 62/76/2 63/77/2
f 36/45/14 23/71/14 63/77/14 64/46/14
f 22/70/13 35/44/13 61/47/13 62/76/13
f 59/78/2 58/79/2 66/80/2 67/81/2
f 60/73/14 59/78/14 67/81/14 68/74/14
f 58/79/13 57/72/13 65/75/13 66/80/13
f 26/52/18 3/82/18 70/55/18 69/4/18
f 3/82/18 7/83/18 71/18/18 70/55/18
f 8/6/18 4/5/18 72/3/18 73/10/18
f 7/83/18 27/84/18 74/9/18 71/18/18
f 4/5/18 26/52/18 69/4/18 72/3/18
f 27/84/18 8/6/18 73/10/18 74/9/18
f 3/82/13 26/52/13 75/53/13 77/85/13
f 8/6/14 27/84/14 76/86/14 80/7/14
f 27/84/14 7/83/14 78/87/14 76/86/14
f 7/83/4 3/82/4 77/85/4 78/87/4
usemtl NeutralGray.001
f 57/72/11 58/79/11 62/76/11 61/47/11
f 58/79/11 59/78/11 63/77/11 62/76/11
f 59/78/11 60/73/11 64/46/11 63/77/11
f 60/73/11 57/72/11 61/47/11 64/46/11
f 75/53/18 79/8/18 80/7/18 76/86/18
f 77/85/18 75/53/18 76/86/18 78/87/18
usemtl Emission
f 68/74/11 67/81/11 66/80/11 65/75/11
